<?xml version="1.0" encoding="utf-8"?>
<!-- Generator: Adobe Illustrator 14.0.0, SVG Export Plug-In . SVG Version: 6.00 Build 43363)  -->
<!DOCTYPE svg PUBLIC "-//W3C//DTD SVG 1.1//EN" "http://www.w3.org/Graphics/SVG/1.1/DTD/svg11.dtd">
<svg version="1.1" id="Livello_1" xmlns="http://www.w3.org/2000/svg" xmlns:xlink="http://www.w3.org/1999/xlink" x="0px" y="0px"
	 width="433.824px" height="71px" viewBox="0 0 433.824 71" enable-background="new 0 0 433.824 71" xml:space="preserve">
<path fill="#FFFFFF" d="M75.539,70.727c0.04-0.002,0.079-0.004,0.118-0.006l276.112-15.281l-0.002-39.822L75.596,0.395
	c-0.005,0-0.01,0-0.015-0.001L75.514,0.39v0.002c-0.576-0.028-1.156-0.044-1.739-0.044c-19.447,0-35.211,15.764-35.212,35.21
	L10.76,19.006l-0.004,0.01c-0.768-0.493-1.675-0.787-2.654-0.787c-2.722,0-4.929,2.207-4.929,4.929c0,2.33,1.621,4.271,3.794,4.785
	l-0.005,0.011l31.601,7.605l0,0L6.582,30.634v0.007c-0.295-0.055-0.596-0.091-0.907-0.091c-2.722,0-4.929,2.207-4.929,4.929
	s2.207,4.929,4.929,4.929c0.254,0,0.498-0.038,0.741-0.074l0,0.02l32.147-4.794l0,0L7.048,42.893l0.001,0.003
	c-2.263,0.446-3.97,2.438-3.97,4.833c0,2.722,2.207,4.929,4.929,4.929c0.915,0,1.762-0.267,2.496-0.701l0.007,0.019L38.563,35.56
	c0,0,0,0,0,0c0,19.447,15.765,35.211,35.212,35.211c0.57,0,1.136-0.017,1.699-0.043v0.002L75.539,70.727z"/>
</svg>
