<?xml version="1.0" encoding="utf-8"?>
<!-- Generator: Adobe Illustrator 14.0.0, SVG Export Plug-In . SVG Version: 6.00 Build 43363)  -->
<!DOCTYPE svg PUBLIC "-//W3C//DTD SVG 1.1//EN" "http://www.w3.org/Graphics/SVG/1.1/DTD/svg11.dtd">
<svg version="1.1" id="Livello_1" xmlns="http://www.w3.org/2000/svg" xmlns:xlink="http://www.w3.org/1999/xlink" x="0px" y="0px"
	 width="433.824px" height="71px" viewBox="0 0 433.824 71" enable-background="new 0 0 433.824 71" xml:space="preserve">
<path fill="#FFFFFF" d="M273.579,59.767c0,0-197.921,10.954-197.921,10.954c-0.04,0.002-0.079,0.004-0.118,0.006l-0.065,0.004
	v-0.002c-0.563,0.026-1.129,0.043-1.699,0.043c-19.447,0-35.212-15.765-35.212-35.211c0,0,0,0,0,0L10.511,51.975l-0.007-0.019
	c-0.734,0.435-1.581,0.701-2.496,0.701c-2.722,0-4.929-2.207-4.929-4.929c0-2.395,1.708-4.387,3.97-4.833l-0.001-0.003l31.515-7.333
	l0,0L6.416,40.354l0-0.02c-0.244,0.036-0.487,0.074-0.741,0.074c-2.722,0-4.929-2.207-4.929-4.929s2.207-4.929,4.929-4.929
	c0.311,0,0.612,0.037,0.907,0.091v-0.007l31.981,4.925l0,0L6.962,27.954l0.005-0.011c-2.173-0.514-3.794-2.455-3.794-4.785
	c0-2.723,2.207-4.929,4.929-4.929c0.979,0,1.887,0.294,2.654,0.787l0.004-0.01l27.803,16.553
	c0.001-19.446,15.766-35.21,35.212-35.21c0.583,0,1.163,0.016,1.739,0.044V0.39l0.067,0.003c0.005,0,0.01,0.001,0.015,0.001
	L273.58,11.307L273.579,59.767z"/>
</svg>
