<?xml version="1.0" encoding="utf-8"?>
<!-- Generator: Adobe Illustrator 14.0.0, SVG Export Plug-In . SVG Version: 6.00 Build 43363)  -->
<!DOCTYPE svg PUBLIC "-//W3C//DTD SVG 1.1//EN" "http://www.w3.org/Graphics/SVG/1.1/DTD/svg11.dtd">
<svg version="1.1" id="Livello_1" xmlns="http://www.w3.org/2000/svg" xmlns:xlink="http://www.w3.org/1999/xlink" x="0px" y="0px"
	 width="1440px" height="900px" viewBox="0 0 1440 900" enable-background="new 0 0 1440 900" xml:space="preserve">
<rect x="0" fill="#C8D700" width="1440" height="900"/>
<linearGradient id="SVGID_1_" gradientUnits="userSpaceOnUse" x1="180.5176" y1="317.9907" x2="180.5176" y2="109.0615">
	<stop  offset="0" style="stop-color:#D4D600"/>
	<stop  offset="1" style="stop-color:#46AA3C"/>
</linearGradient>
<path fill="url(#SVGID_1_)" d="M360.405,295.376c-0.248-1.338-0.56-2.718-0.85-4.088c0.256-0.583,0.173-1.179-0.342-1.624
	c-5.146-22.702-16.607-49.589-32.252-75.568c-0.046-0.29-0.174-0.57-0.467-0.801c-0.005-0.004-0.009-0.009-0.019-0.013
	c-3.891-6.434-8.054-12.797-12.433-19.033c0.108-0.393-0.068-0.821-0.716-1.243c-0.091-0.059-0.184-0.112-0.275-0.17
	c-28.594-40.293-66.45-74.56-104.83-81.54C85.178,88.608,23.797,244.795,0.711,303.602c-0.35,0.889,0.219,1.855,1.265,2.147
	c0.214,0.063,0.428,0.091,0.632,0.091c0.842,0,1.625-0.45,1.902-1.164c4.471-11.382,9.316-23.193,14.579-35.11
	c0.155-0.074,0.302-0.128,0.458-0.272c3.891-3.677,7.923-7.249,12.034-10.754c-7.063,15.3-10.473,31.815-15.254,47.664
	c-0.77,2.537,3.784,1.495,4.368-0.445c5.375-17.8,8.989-36.419,18.198-53.165c1.97-1.586,3.906-3.197,5.914-4.745
	c-5.161,18.38-8.691,37.973-9.085,56.695c-0.045,2.02,4.829,2.692,4.877,0.421c0.438-20.521,4.655-41.986,10.693-61.83
	c0.01-0.025-0.009-0.049,0-0.073c1.829-1.343,3.668-2.672,5.526-3.981c-3.386,23.163-5.054,47.182-3.629,70.411
	c0.127,2.022,5.021,2.626,4.885,0.362c-1.499-24.419,0.378-49.791,4.164-74.019c0.028-0.178-0.024-0.339-0.063-0.504
	c3.837-2.597,7.754-5.12,11.719-7.582c-3.833,26.798-5.283,54.882-3.629,81.743c0.126,2.022,5.024,2.626,4.883,0.362
	c-1.708-27.809-0.16-57.027,4.038-84.649c0.04-0.214-0.014-0.416-0.078-0.611c3.035-1.816,6.105-3.601,9.204-5.343
	c-4.145,29.539-5.453,60.656-3.648,90.241c0.121,2.022,5.02,2.626,4.883,0.362c-1.859-30.517-0.486-62.754,4.037-93.082
	c0.025-0.148-0.028-0.281-0.058-0.422c1.902-1.028,3.853-1.999,5.77-2.998c0.127,0.049,0.204,0.123,0.355,0.156
	c1.766,0.401,3.521,0.851,5.288,1.26c-4.612,30.864-6.057,63.66-4.145,94.723c0.126,2.022,5.025,2.626,4.884,0.362
	c-1.888-30.782-0.535-63.339,4.039-93.924c0.003-0.008,0-0.016,0-0.025c4.163,0.975,8.318,1.966,12.472,2.969
	c-4.252,29.561-5.385,60.784-3.551,90.452c0.126,2.024,5.024,2.622,4.884,0.364c-1.815-29.391-0.76-60.389,3.443-89.675
	c3.96,0.966,7.91,1.935,11.86,2.926c-3.912,27.946-4.489,58.808,0.2,86.551c0.335,1.999,5.258,2.568,4.884,0.362
	c-4.636-27.425-4.169-58.041-0.316-85.677c3.357,0.854,6.704,1.722,10.054,2.597c-3.39,25.951-4.027,57.056,2.307,82.651
	c0.671,2.714,4.212,1.305,3.629-1.057c-6.115-24.717-5.522-55.378-2.301-80.657c3.6,0.943,7.209,1.848,10.798,2.808
	c-1.692,12.002,0.478,25.067,1.041,37.055c0.648,13.707,0.652,27.776,3.051,41.364c0.461,2.613,4.553,0.896,4.193-1.141
	c-2.174-12.339-2.224-25.083-2.861-37.529c-0.638-12.415-2.972-26.145-1.473-38.663c4.007,1.081,8.001,2.202,12.005,3.309
	c1.907,24.996,4.261,50.98,9.72,75.63c-0.225,0.285-0.321,0.632-0.117,1.069c0.208,0.438,0.418,0.881,0.622,1.322
	c0.876,1.842,5.371,1.602,4.845-0.677c-5.682-24.65-8.069-50.817-10.001-75.95c5.128,1.426,10.256,2.833,15.373,4.291
	c5.107,24.345,4.446,49.218,10.381,73.45c0.667,2.73,4.073,1,3.502-1.321c-5.725-23.402-5.341-47.434-9.913-70.98
	c5.335,1.527,10.663,3.068,15.984,4.626c0.404,4.617,0.948,9.237,1.557,13.857c-0.078,0.231-0.054,0.477,0.087,0.72
	c2.317,17.436,5.488,34.9,5.488,52.38c0,2.597,3.716,2.911,3.716,0.256c0-0.199,0-0.4,0-0.599c0-0.038-0.013-0.067-0.019-0.104
	c-0.009-3.374-0.156-6.748-0.371-10.121c30.5-2.058,61.6-15.759,90.826-23.139c0.204-0.049,0.355-0.156,0.509-0.256
	c4.52,1.817,8.972,3.725,13.386,5.682c-29.059,10.506-58.863,21.426-89.095,29.106c-2.287,0.582-3.046,4.492-0.075,3.737
	c31.818-8.083,63.02-19.677,93.579-30.711c0.053-0.019,0.083-0.054,0.125-0.076c3.921,1.802,7.818,3.625,11.637,5.556
	c0.223,1.081,0.476,2.178,0.671,3.24v0.005c-13.096,4.72-26.531,8.634-39.826,12.962c-2.193,0.714-2.943,4.675-0.072,3.738
	c13.988-4.556,28.116-8.665,41.882-13.674c1.109-0.404,1.586-1.382,1.514-2.217C360.304,296.354,360.496,295.879,360.405,295.376z
	 M186.495,180.092c45.979,0.917,102.284,9.052,136.643,36.325c0.316,0.248,0.681,0.326,1.05,0.334
	c2.044,3.436,4.029,6.88,5.917,10.333c-48.274-24.216-102.442-40.161-158.524-42.878
	C176.523,182.735,181.494,181.376,186.495,180.092z M159.561,187.897c0.13,0.033,0.248,0.099,0.403,0.099
	c61.079,0.975,120.085,17.864,172.174,44.517c0.365,0.191,0.681,0.227,0.961,0.204c1.937,3.716,3.786,7.425,5.532,11.116
	c-22.168-15.217-52.428-23.265-78.789-30.798c-36.169-10.332-74.195-18.198-112.36-20.858
	C151.495,190.714,155.498,189.239,159.561,187.897z M137.875,195.786c38.833,1.816,76.899,9.65,113.922,19.413
	c29.458,7.768,64.93,16.918,88.436,34.722c0.481,0.364,0.935,0.425,1.341,0.336c1.344,3.021,2.594,6.024,3.785,9.001
	c-64.959-29.704-141.03-49.774-213.59-60.982C133.803,197.44,135.827,196.59,137.875,195.786z M124.462,201.256
	c0.147,0.066,0.283,0.153,0.458,0.178c74.981,11.08,154.623,31.753,221.606,62.788c0.312,0.144,0.594,0.205,0.855,0.21
	c1.275,3.399,2.437,6.744,3.503,10.043c-70.369-34.676-156.427-51.872-234.604-69.444
	C119.005,203.771,121.7,202.458,124.462,201.256z M200.446,176.738c8.775-1.941,17.615-3.608,26.507-4.98
	c30.027,1.066,58.505,7.595,82.783,23.411c0.2,0.128,0.433,0.207,0.667,0.272c2.821,4.01,5.555,8.073,8.181,12.187
	C286.81,186.745,240.85,178.717,200.446,176.738z M242.679,169.669c14.975-1.722,30.015-2.713,45.046-2.727
	c0.024,0,0.039-0.011,0.068-0.016c6.03,6.702,11.811,13.813,17.294,21.168C286.109,177.622,264.924,171.953,242.679,169.669z
	 M269.707,148.802c-38.274,0.144-77.963,1.837-113.007,16.002c-44.432,17.973-87.843,41.871-122.104,72.167
	c3.074-6.001,6.275-11.948,9.592-17.812c28.949-27.523,62.275-44.703,100.657-61.547c34.751-15.255,77.169-15.784,115.463-15.833
	c0.325,0,0.583-0.099,0.811-0.243C264.016,143.859,266.881,146.266,269.707,148.802z M62.732,189.533
	c45.222-41.801,112.511-60.409,178.254-61.934c5.27,3.057,10.468,6.537,15.585,10.387c-41.43,0.181-82.618,2.738-120.016,19.157
	c-32.82,14.408-61.005,29.767-86.349,51.708C54.211,202.231,58.384,195.781,62.732,189.533z M91.454,154.769
	c41.708-21.646,83.401-33.276,132.458-35.391c4.033,1.554,8.047,3.375,12.03,5.46c-60.841,2.177-121.646,18.798-165.863,54.619
	C76.801,170.615,83.898,162.301,91.454,154.769z M207.373,114.616c2.998,0.545,5.984,1.322,8.971,2.197
	c-43.026,2.718-80.322,12.847-117.604,31.039C128.209,121.385,163.904,106.61,207.373,114.616z M23.078,260.702
	c2.145-4.674,4.373-9.349,6.655-14.012c33.827-31.979,76.367-54.52,120.746-74.56c37.968-17.146,80.925-19.055,123.119-19.112
	c0.2,0,0.35-0.066,0.516-0.116c3.347,3.172,6.631,6.479,9.856,9.908c-33.487,0.334-67.053,5-99.459,13.425
	c-0.078,0-0.17-0.004-0.252-0.004c-0.477-0.005-0.925,0.169-1.333,0.417C122.469,192.617,66.353,221.751,23.078,260.702z
	 M231.682,274.128c14.13-4.083,27.984-8.716,42.356-12.23c0.354-0.089,0.611-0.269,0.817-0.485
	c7.032,2.193,14.052,4.431,21.014,6.791c-21.044,5.363-41.875,11.294-62.655,17.344
	C232.737,281.738,232.216,277.932,231.682,274.128z M231.083,269.854c-0.355-2.536-0.708-5.071-1.05-7.606
	c3.901-1.193,7.807-2.379,11.718-3.547c3.809-1.145,8.042-2.849,12.148-3.667c4.572,1.362,9.148,2.737,13.726,4.141
	C255.318,262.429,243.288,266.315,231.083,269.854z M241.006,255.211c-3.819,1.129-7.627,2.287-11.432,3.447
	c-0.476-3.721-0.896-7.441-1.25-11.162c1.659,0.486,3.332,0.953,4.991,1.446c4.686,1.383,9.402,2.771,14.131,4.166
	C245.238,253.814,243.059,254.604,241.006,255.211z M234.575,298.55c-0.262-3.171-0.574-6.347-0.944-9.519
	c22.231-6.466,44.5-12.835,67.032-18.526c0.341-0.086,0.595-0.206,0.808-0.337c6.125,2.13,12.192,4.355,18.193,6.677
	C292.136,284.391,263.107,296.511,234.575,298.55z M236.064,245.489c-9.641-2.875-19.317-5.673-29.012-8.441
	c-0.248-0.165-0.525-0.26-0.816-0.238c-33.565-9.566-67.441-18.41-101.6-26.228c1.937-0.968,3.872-1.925,5.823-2.862
	c0.146,0.069,0.258,0.156,0.452,0.198c80.021,18.063,169.187,35.514,240.967,71.81c0.214,0.108,0.448,0.146,0.675,0.166
	c0.734,2.52,1.408,4.998,2.011,7.431C317.641,269.284,276.026,257.415,236.064,245.489z"/>
<linearGradient id="SVGID_2_" gradientUnits="userSpaceOnUse" x1="540.3364" y1="313.522" x2="540.3364" y2="113.5308">
	<stop  offset="0" style="stop-color:#D4D600"/>
	<stop  offset="1" style="stop-color:#46AA3C"/>
</linearGradient>
<path fill="url(#SVGID_2_)" d="M720.186,308.212c-21.307-72.711-73.521-194.681-183.877-194.681c-0.011,0-0.019,0-0.025,0
	c-74.81,0.021-125.701,63.474-153.305,122.684c-0.358,0.234-0.494,0.558-0.426,0.925c-11.374,24.588-18.749,48.386-22.104,66.529
	c-0.039,0.234-0.024,0.467,0.038,0.682c-0.2,0.903,0.157,1.688,1.465,1.532c55.615-6.687,114.729-4.448,170.855-5.385
	c0.155-0.004,0.287-0.064,0.426-0.092c2.511,3.576,4.925,7.189,7.114,10.873c1.322,2.226,3.842-0.269,2.802-2.022
	c-27.84-46.851-81.617-85.335-138.195-105.67c1.742-2.779,3.527-5.542,5.374-8.275c62.156,19.166,115.644,64.377,145.365,114.322
	c0.842,1.416,2.161,0.921,2.749-0.074c1.363,1.015,4.271,0.999,4.175-0.757c-1.174-21.982,3.745-44.051,7.489-65.739
	c3.358,0.636,6.723,1.342,10.08,2.077c-3.52,21.388-6.728,43.333-5.463,64.947c0.117,2.024,5.017,2.626,4.885,0.363
	c-1.246-21.342,1.881-43.027,5.355-64.133c0.005-0.025-0.011-0.051-0.011-0.074c4.934,1.151,9.846,2.414,14.741,3.783
	c-3.26,19.31-6.639,38.868-5.536,58.414c0.117,2.022,5.015,2.626,4.882,0.363c-1.083-19.236,2.199-38.451,5.412-57.455
	c4.154,1.214,8.289,2.523,12.398,3.882c-2.993,17.649-5.897,35.333-4.874,53.21c0.111,2.022,5.014,2.626,4.883,0.363
	c-0.998-17.456,1.777-34.722,4.696-51.959c4.245,1.465,8.458,2.993,12.636,4.604c-2.346,15.306-2.885,30.659-1.594,46.071
	c0.169,2.02,5.078,2.614,4.882,0.363c-1.244-14.903-0.807-29.778,1.405-44.595c3.388,1.359,6.749,2.753,10.079,4.198
	c-0.743,14.229-0.524,28.525,0.181,42.751c0.138,2.606,3.874,2.719,3.735,0.067c-0.681-13.699-0.885-27.458-0.237-41.165
	c3.906,1.746,7.767,3.552,11.583,5.416c-0.012,0.077-0.054,0.151-0.05,0.229c0.219,12.558-0.564,25.327,1.732,37.776
	c0.438,2.36,4.384-0.122,4.029-2.05c-2.06-11.152-1.486-22.645-1.548-33.931c4.767,2.407,9.417,4.936,14,7.517
	c0.475,8.333,0.991,16.672,2.968,24.86c0.475,1.973,5.378,1.561,4.844-0.668c-1.694-7.018-2.248-14.149-2.667-21.281
	c5.526,3.235,10.877,6.611,16.082,10.084c-0.008,0.17-0.037,0.326-0.008,0.525c0.637,3.705,1.273,7.409,1.91,11.114
	c0.442,2.573,4.178,2.415,3.726-0.214c-0.49-2.878-0.987-5.762-1.483-8.64c2.492,1.722,4.959,3.457,7.362,5.229
	c0.393,1.313,0.801,2.645,1.18,3.928c0.225,0.776,1.042,1.292,1.935,1.292c0.167,0,0.328-0.017,0.489-0.053
	C719.802,310.042,720.454,309.121,720.186,308.212z M522.807,286.835c2.705,3.21,5.251,6.481,7.704,9.793
	c-54.497,0.796-111.648-1.126-165.615,5.157c0.957-4.832,2.169-10.007,3.672-15.494c50.965-1.503,102.79-1.149,153.721,0.639
	C522.484,286.94,522.641,286.877,522.807,286.835z M510.138,273.126c3.099,3.102,6.082,6.264,8.952,9.485
	c-49.501-1.676-99.799-2.005-149.307-0.574c0.843-2.883,1.747-5.829,2.73-8.837c43.226-5.129,93.008-4.361,136.38,0.049
	C509.418,273.302,509.807,273.236,510.138,273.126z M494.996,259.237c4.076,3.441,8.05,6.958,11.838,10.596
	c-42.403-4.198-90.678-4.92-133.155-0.14c1.557-4.58,3.27-9.267,5.152-14.043c0.472,0.233,1.011,0.386,1.576,0.362
	c36.994-1.632,76.201-0.449,112.976,3.494C494.13,259.585,494.641,259.458,494.996,259.237z M472.599,242.153
	c6.45,4.407,12.677,9.056,18.646,13.912c-36.308-3.787-74.733-4.885-111.241-3.328c1.819-4.493,3.774-9.036,5.868-13.615
	c28.154-1.251,57.453,0.042,85.41,3.172C471.855,242.36,472.263,242.281,472.599,242.153z M467.321,238.693
	c-26.268-2.78-53.469-3.89-79.913-2.875c2.121-4.501,4.388-9.016,6.78-13.528c0.162,0.016,0.312,0.058,0.478,0.049
	c15.673-0.822,30.971-0.669,46.519,1.099C450.16,228.087,458.896,233.191,467.321,238.693z M433.373,219.489
	c-12.469-1.007-24.861-1.065-37.433-0.486c2.229-4.089,4.592-8.152,7.043-12.188C413.239,210.45,423.415,214.683,433.373,219.489z
	 M708.073,283.413c-46.952-33.801-114.11-61.417-175.986-61.379c-0.025,0-0.04,0.011-0.063,0.017
	c-2.67-2.202-5.333-4.378-7.992-6.526c64.424-5.177,131.686,20.648,179.771,56.118C705.312,275.627,706.722,279.548,708.073,283.413
	z M701.44,265.527c-49.064-34.953-116.34-59.777-180.688-53.603c-0.321,0.029-0.573,0.144-0.792,0.297
	c-1.455-1.177-2.889-2.35-4.315-3.514c0.063-0.169,0.112-0.342,0.078-0.565c-0.125-0.769-0.2-1.557-0.316-2.331
	c66.634-4.826,131.802,13.711,182.539,51.088C699.152,259.796,700.315,262.669,701.44,265.527z M695.216,250.55
	c-50.697-35.786-114.708-53.353-180.319-48.524c-0.166-1.296-0.376-2.572-0.522-3.882c31.814-1.979,65.724-2.766,96.059,6.343
	c25.408,7.636,55.466,15.453,77.098,29.478C690.251,239.493,692.808,245.037,695.216,250.55z M684.451,227.873
	c-8.901-5.163-18.825-9.407-29.133-13.09c6.481-1.752,12.964-2.938,19.814-3.854C678.416,216.512,681.52,222.175,684.451,227.873z
	 M668.058,199.506c1.697,2.606,3.353,5.237,4.961,7.897c-8.225,1.165-15.988,2.696-23.889,5.218
	c-0.009,0.006-0.013,0.014-0.023,0.014c-5.671-1.903-11.363-3.704-17.02-5.43c11.622-3.574,23.54-6.014,35.811-7.641
	C667.961,199.557,668,199.519,668.058,199.506z M659.788,187.493c2.053,2.812,4.038,5.671,5.98,8.562
	c-13.773,1.915-27.159,4.727-40.134,9.187c-3.601-1.089-7.164-2.175-10.637-3.266c-1.276-0.401-2.568-0.756-3.853-1.124
	c15.683-5.215,31.653-10.357,48.162-13.165C659.493,187.655,659.633,187.566,659.788,187.493z M649.569,174.476
	c2.573,3.053,5.073,6.177,7.491,9.371c-17.932,3.25-35.215,8.999-52.229,14.668c-0.304,0.099-0.538,0.274-0.73,0.479
	c-3.902-0.937-7.846-1.739-11.815-2.42c-0.478-1.935-0.873-3.876-1.28-5.817c18.899-7.137,38.158-12.943,58.519-16.264
	C649.54,174.489,649.554,174.476,649.569,174.476z M638.542,162.364c2.705,2.743,5.349,5.554,7.909,8.463
	c-19.502,3.406-38.089,8.916-56.3,15.767c-0.688-3.677-1.266-7.36-1.781-11.051c15.849-6.768,32.459-10.688,49.997-13.115
	C638.433,162.418,638.478,162.377,638.542,162.364z M634.892,158.688c-16.411,2.458-32.133,6.252-47.102,12.558
	c-0.471-3.773-0.909-7.553-1.288-11.335c12.885-4.274,26.256-6.962,39.917-8.809C629.307,153.543,632.15,156.054,634.892,158.688z
	 M622.508,147.865c-12.42,1.817-24.605,4.349-36.387,8.197c-0.321-3.316-0.647-6.627-0.968-9.944
	c8.191-2.944,16.65-5.175,25.309-6.914C614.609,141.906,618.629,144.78,622.508,147.865z M607,136.938
	c-7.55,1.615-14.948,3.61-22.138,6.166c-0.259-2.652-0.545-5.298-0.838-7.945c4.539-1.264,9.132-2.382,13.773-3.366
	C600.924,133.407,604.003,135.104,607,136.938z M593.574,129.732c-3.317,0.751-6.612,1.565-9.875,2.465
	c-0.278-2.358-0.588-4.716-0.916-7.07C586.477,126.49,590.053,128.068,593.574,129.732z M578.863,123.826
	c1.645,11.48,2.617,23.014,3.77,34.524c-0.023,0.292,0.007,0.59,0.087,0.872c0.497,4.872,1.057,9.741,1.698,14.598
	c-0.072,0.516,0,1.037,0.199,1.487c0.943,6.9,2.132,13.781,3.722,20.624c-6.065-0.921-12.191-1.586-18.348-2.028
	c0.262-0.297,0.422-0.658,0.321-1.116c-5.254-23.692-5.215-48.99-6.655-73.078C568.886,120.779,573.94,122.178,578.863,123.826z
	 M558.647,118.809c1.497,24.6,1.448,50.432,6.823,74.651c0.018,0.07,0.075,0.111,0.104,0.178c-4.846-0.269-9.701-0.421-14.564-0.463
	c0.048-0.202,0.083-0.408,0.048-0.619c-4.311-24.547-3.298-50.354-4.009-75.189C551.006,117.673,554.853,118.182,558.647,118.809z
	 M532.495,117.079c1.265-0.038,2.511-0.145,3.79-0.145c0.014,0,0.011,0,0.025,0c2.208,0,4.359,0.128,6.519,0.228
	c0.782,25.071-0.322,51.174,3.959,76.01c-4.169,0.012-8.338,0.087-12.501,0.214c-0.011-0.09,0.008-0.169-0.011-0.263
	C528.565,170.045,528.535,140.605,532.495,117.079z M517.309,118.384c3.731-0.575,7.548-0.93,11.416-1.16
	c-3.868,23.976-3.915,52.735,1.776,76.286c-5.512,0.211-11.003,0.509-16.47,0.848c-2.267-24.857-0.264-51.312,3.356-75.425
	C517.415,118.739,517.361,118.562,517.309,118.384z M499.854,122.41c4.076-1.255,8.275-2.238,12.535-3.076
	c-4.027,27.454-6.027,57.7-1.98,85.26c-4.055-3.176-8.19-6.169-12.418-8.957c0.151-0.206,0.244-0.454,0.22-0.768
	c-1.597-23.804-1.889-48.713,1.647-72.401C499.863,122.447,499.85,122.43,499.854,122.41z M484.221,128.415
	c3.42-1.565,6.926-2.953,10.489-4.225c-3.057,22.469-2.934,45.851-1.495,68.39c-4.071-2.51-8.245-4.851-12.493-7.064
	c0.083-0.169,0.151-0.352,0.132-0.584c-1.154-18.558,0.575-37.257,3.556-55.65C484.465,128.963,484.371,128.679,484.221,128.415z
	 M467.068,137.748c3.939-2.511,8.011-4.778,12.169-6.893c-2.683,17.274-4.241,34.764-3.307,52.175
	c-3.959-1.938-8.015-3.75-12.15-5.468c-0.807-13.339,1.095-26.004,3.366-39.173C467.184,138.161,467.14,137.949,467.068,137.748z
	 M451.968,148.733c3.153-2.573,6.393-5.006,9.71-7.327c-1.907,11.431-3.333,22.595-2.811,34.228c-2.545-0.995-5.11-1.97-7.721-2.895
	c-0.584-7.426-1.562-15.983,0.89-23.147C452.143,149.277,452.085,148.997,451.968,148.733z M446.034,153.787
	c-0.798,5.649-0.32,11.695,0.127,17.246c-4.377-1.458-8.839-2.853-13.417-4.154C436.986,162.297,441.408,157.917,446.034,153.787z
	 M557.692,306.329c-30.102-49.832-83.073-94.615-145.131-114.206c1.31-1.879,2.632-3.745,3.996-5.592
	c62.605,17.89,111.377,57.082,141.271,106.852C557.59,297.702,557.538,302.016,557.692,306.329z M558.257,287.512
	c-30.238-48.266-78.21-86.258-139.294-104.157c1.921-2.519,3.892-4.992,5.911-7.434c58.229,17.052,106.492,55.838,134.396,102.325
	C558.867,281.332,558.529,284.424,558.257,287.512z M559.998,272.877c-28.287-45.211-75.665-82.89-132.537-100.057
	c0.828-0.966,1.688-1.9,2.534-2.853c31.431,8.746,58.194,20.969,82.055,40.413c17.4,14.165,38.007,29.407,50.469,47.24
	C561.613,262.69,560.757,267.781,559.998,272.877z M563.36,252.949c-3.303-4.395-7.024-8.624-11.065-12.704
	c4.319,0.571,8.637,1.235,12.967,1.987C564.649,245.792,564.008,249.363,563.36,252.949z M548.431,235.921
	c-0.175-0.02-0.32,0.021-0.476,0.042c-3.619-3.424-7.394-6.753-11.246-10.011c61.232,1.268,127.089,29.222,172.551,62.729
	c0.263,0.19,0.505,0.282,0.73,0.306c1.197,3.561,2.325,7.041,3.391,10.448C668.044,267.01,606.878,242.818,548.431,235.921z"/>
<linearGradient id="SVGID_3_" gradientUnits="userSpaceOnUse" x1="900.1543" y1="322.4307" x2="900.1543" y2="113.5312">
	<stop  offset="0" style="stop-color:#D4D600"/>
	<stop  offset="1" style="stop-color:#46AA3C"/>
</linearGradient>
<path fill="url(#SVGID_3_)" d="M1079.959,308.075c-23.088-58.807-84.391-215.015-207.501-192.306
	c-38.359,6.975-76.207,41.21-104.789,81.475c-0.089,0.053-0.176,0.103-0.255,0.156c-0.645,0.422-0.836,0.863-0.746,1.268
	c-22.534,32.092-39.14,67.801-45.445,96.58c-0.106,0.249-0.16,0.504-0.157,0.747c-0.271,1.289-0.562,2.593-0.795,3.854
	c-0.109,0.578,0.166,1.106,0.626,1.478c-0.438,0.872-0.365,1.854,0.764,2.269c13.585,4.944,27.537,8.989,41.343,13.487
	c2.224,0.722,4.666-2.919,2.159-3.738c-13.643-4.444-27.43-8.458-40.865-13.322c0.214-1.136,0.471-2.3,0.719-3.461
	c3.47-1.743,7.006-3.402,10.558-5.034c0.146,0.116,0.282,0.24,0.505,0.318c30.356,10.957,61.42,22.494,93.039,30.523
	c2.285,0.581,4.707-3.093,2.16-3.738c-30.676-7.79-60.826-18.878-90.314-29.54c4.396-1.937,8.824-3.819,13.318-5.613
	c0.263,0.277,0.564,0.513,0.964,0.613c29.129,7.354,60.119,20.985,90.526,23.112c-0.203,3.299-0.348,6.599-0.359,9.899
	c-0.006,0.042-0.019,0.063-0.019,0.103c0,0.199,0,0.402,0,0.6c0,2.598,3.726,2.911,3.726,0.256c0-17.478,3.114-34.929,5.428-52.352
	c0.138-0.256,0.207-0.526,0.098-0.784c0.633-4.816,1.198-9.627,1.617-14.44c5.32-1.563,10.652-3.12,15.994-4.652
	c-4.7,23.741-4.258,47.969-10.033,71.57c-0.58,2.378,3.027,3.614,3.684,0.917c5.946-24.299,5.259-49.264,10.426-73.673
	c5.068-1.446,10.166-2.834,15.255-4.247c-1.945,25.345-4.355,51.713-10.085,76.582c-0.443,1.931,4.11,2.19,4.869,0.589
	c0.205-0.438,0.412-0.879,0.623-1.32c0.204-0.433,0.117-0.794-0.086-1.104c5.525-24.794,7.859-51,9.777-76.151
	c3.928-1.078,7.854-2.184,11.8-3.241c1.586,11.741-0.575,24.575-1.129,36.291c-0.631,13.539-0.627,27.457-2.995,40.873
	c-0.478,2.737,3.705,2.019,4.086-0.156c2.208-12.51,2.265-25.411,2.92-38.022c0.658-12.931,3.092-27.182,1.307-40.141
	c3.545-0.946,7.122-1.822,10.679-2.746c3.277,25.203,3.89,56.171-2.234,80.921c-0.576,2.344,2.904,3.911,3.574,1.189
	c6.374-25.771,5.702-56.891,2.297-83.047c3.367-0.873,6.728-1.744,10.099-2.594c3.797,27.511,4.338,57.942-0.269,85.216
	c-0.353,2.101,4.427,3.258,4.772,1.212c4.748-28.103,4.214-59.405,0.177-87.633c3.979-0.998,7.958-1.96,11.948-2.929
	c4.173,29.286,5.251,60.231,3.433,89.609c-0.126,2.008,4.749,2.643,4.883,0.364c1.85-29.871,0.717-61.369-3.633-91.088
	c4.189-1.004,8.371-2.002,12.566-2.982c4.539,30.598,5.919,63.101,4.027,93.872c-0.122,2.006,4.748,2.643,4.884,0.362
	c1.907-30.929,0.505-63.616-4.097-94.354c-0.05-0.347-0.271-0.635-0.555-0.892c1.72-0.391,3.426-0.83,5.139-1.218
	c0.252-0.057,0.467-0.165,0.67-0.277c2.015,1.041,4.048,2.053,6.03,3.127c4.516,30.395,5.928,62.667,4.06,93.252
	c-0.122,2.006,4.746,2.643,4.883,0.362c1.82-29.737,0.511-61.057-3.716-90.711c3.081,1.729,6.13,3.498,9.146,5.303
	c4.212,27.764,5.808,57.091,4.087,85.046c-0.123,2.006,4.746,2.643,4.883,0.362c1.663-27.006,0.215-55.296-3.697-82.22
	c3.955,2.452,7.854,4.966,11.688,7.552c3.792,24.341,5.706,49.783,4.198,74.306c-0.12,2.006,4.747,2.643,4.886,0.362
	c1.439-23.386-0.253-47.598-3.71-70.901c1.942,1.358,3.855,2.746,5.763,4.138c5.953,19.686,10.109,41.096,10.535,61.453
	c0.05,2.023,4.934,2.688,4.886,0.421c-0.403-18.993-4.049-38.767-9.327-57.373c1.865,1.433,3.654,2.926,5.484,4.393
	c0.019,0.17,0.026,0.342,0.12,0.508c9.694,17.146,13.324,36.292,18.849,54.594c0.644,2.115,4.747-0.265,4.161-2.21
	c-4.596-15.217-7.944-31.054-14.513-45.823c3.814,3.268,7.569,6.574,11.19,9.989c0.203,0.192,0.397,0.29,0.604,0.384
	c5.287,11.969,10.156,23.825,14.639,35.249c0.279,0.714,1.063,1.163,1.898,1.163c0.21,0,0.425-0.028,0.633-0.092
	C1079.746,309.93,1080.309,308.964,1079.959,308.075z M839.7,132.069L839.7,132.069c65.72,1.495,132.9,20.116,178.158,61.838
	c4.387,6.293,8.602,12.801,12.639,19.476c-27.271-23.54-58.14-39.323-93.368-54.785c-34.025-14.94-75.317-16.036-113.014-16.143
	C829.229,138.606,834.429,135.122,839.7,132.069z M856.785,123.847c49.384,2.102,90.299,13.471,132.382,35.344
	c7.58,7.554,14.707,15.9,21.448,24.775c-44.188-35.845-105.057-52.45-165.893-54.651C848.721,127.225,852.738,125.4,856.785,123.847
	z M873.304,119.09c43.501-8.028,79.224,6.784,108.709,33.306c-37.117-18.075-74.837-28.354-117.708-31.101
	C867.297,120.415,870.298,119.635,873.304,119.09z M819.632,145.944c0.263,0.174,0.555,0.306,0.93,0.306
	c42.072,0.058,84.246,2.173,122.248,18.856c36.044,15.821,66.438,32.653,93.642,58.479c3.298,5.815,6.465,11.709,9.52,17.656
	c-34.748-30.469-77.575-52.233-121.749-71.799c-33.954-15.041-75.553-16.064-113.249-16.167
	C813.823,150.714,816.713,148.281,819.632,145.944z M792.914,171.363c0.09,0.013,0.157,0.052,0.25,0.052
	c14.977,0.013,29.979,1.004,44.903,2.714c-22.25,2.267-43.45,7.9-62.431,18.373C781.114,185.156,786.883,178.058,792.914,171.363z
	 M909.167,188.662c-56.048,2.651-110.19,18.512-158.468,42.654c1.958-3.572,4.016-7.14,6.137-10.692
	c0.131-0.079,0.266-0.128,0.398-0.23c34.168-27.12,91.354-35.094,136.939-35.863C899.204,185.825,904.199,187.191,909.167,188.662z
	 M733.276,268.941c0.268,0.026,0.561-0.007,0.876-0.156c67.081-31.08,146.582-51.761,221.59-62.844c0.23-0.034,0.4-0.128,0.576-0.22
	c2.883,1.255,5.695,2.627,8.548,3.944c-78.436,17.633-164.76,34.958-235.285,69.907C730.7,276.087,731.924,272.542,733.276,268.941z
	 M735.358,263.615c1.168-2.911,2.394-5.848,3.702-8.804c0.321,0.049,0.678,0,1.073-0.307c22.155-16.78,54.079-25.042,81.687-32.93
	c38.822-11.092,79.815-19.43,120.793-21.329c0.06-0.004,0.108-0.036,0.166-0.042c2.068,0.81,4.105,1.664,6.16,2.507
	C876.408,213.906,800.228,233.961,735.358,263.615z M827.885,215.604c-28.373,7.483-62.211,16.392-85.915,32.855
	c1.78-3.779,3.673-7.568,5.656-11.373c0.38,0.125,0.799,0.138,1.262-0.099c52.089-26.657,111.099-43.541,172.178-44.512
	c0.115,0,0.184-0.055,0.281-0.07c4.038,1.333,8.017,2.804,11.996,4.253C897.454,199.213,862.223,206.548,827.885,215.604z
	 M761.398,213.205c2.826-4.46,5.771-8.875,8.822-13.223c0.23-0.062,0.454-0.136,0.647-0.261
	c24.324-15.849,52.868-22.44,82.967-23.493c8.976,1.384,17.887,3.064,26.737,5.03C839.518,183.355,793.343,191.647,761.398,213.205z
	 M760.236,281.194c6.188-2.378,12.432-4.662,18.748-6.839c0.242,0.207,0.564,0.397,1.069,0.525
	c22.514,5.688,44.772,12.051,66.987,18.513c-0.378,3.223-0.694,6.443-0.961,9.665C817.297,301.06,787.993,288.756,760.236,281.194z
	 M826.431,259.308c3.562,0.591,9.088,2.673,12.844,3.786c3.804,1.141,7.606,2.293,11.412,3.454
	c-0.361,2.638-0.731,5.272-1.111,7.912c-12.453-3.609-24.727-7.564-37.288-10.877C817.004,262.138,821.722,260.717,826.431,259.308z
	 M806.001,265.526c0.302,0.406,0.7,0.732,1.217,0.86c14.184,3.474,27.848,8.052,41.793,12.087
	c-0.548,3.885-1.078,7.769-1.571,11.654c-21.028-6.116-42.101-12.121-63.396-17.538C791.32,270.135,798.653,267.807,806.001,265.526
	z M851.09,263.314c-3.921-1.193-7.842-2.378-11.771-3.553c-2.243-0.667-4.578-1.502-6.941-2.234
	c4.619-1.375,9.243-2.741,13.834-4.112c2.053-0.614,4.124-1.192,6.188-1.801C852.039,255.513,851.59,259.41,851.09,263.314z
	 M955.205,220.291c-0.517,0-0.987,0.096-1.324,0.319c-5.167,1.255-10.318,2.531-15.464,3.833c-0.44,0.019-0.832,0.105-1.129,0.291
	c-20.813,5.282-41.527,10.871-62.128,16.729c-0.711-0.252-1.525-0.122-2.004,0.578c-9.152,2.61-18.285,5.233-27.396,7.921
	c-6.723,1.982-13.502,3.986-20.287,6.005c-0.13-0.016-0.258-0.055-0.395-0.065c-1.201-0.125-1.819,0.251-1.992,0.785
	c-33.264,9.935-66.786,20.772-97.125,35.699c0.67-2.756,1.435-5.57,2.275-8.436c71.713-36.255,160.86-53.624,240.869-71.682
	c0.279-0.062,0.521-0.178,0.74-0.306c2.227,1.069,4.436,2.159,6.635,3.267C969.37,216.86,962.288,218.569,955.205,220.291z
	 M1045.421,254.812c-0.01-0.022-0.02-0.038-0.029-0.06c-0.205-0.362-0.516-0.543-0.855-0.652
	c-40.911-33.09-91.32-58.07-145.29-72.557c-0.091-0.482-0.459-0.847-1.325-0.838c-0.585,0.009-1.183,0.029-1.767,0.037
	c-11.719-3.048-23.588-5.604-35.565-7.64c-0.28-0.099-0.607-0.156-0.991-0.165c-20.791-3.481-41.855-5.426-62.896-5.645
	c3.239-3.445,6.537-6.769,9.899-9.953c0.207,0.082,0.426,0.153,0.686,0.153c42.18,0.057,84.612,2.096,122.661,18.955
	c44.401,19.665,87.105,42.622,120.799,74.481c0.041,0.037,0.074,0.042,0.113,0.072c2.325,4.751,4.591,9.513,6.775,14.274
	C1053.661,261.704,1049.599,258.214,1045.421,254.812z"/>
<linearGradient id="SVGID_4_" gradientUnits="userSpaceOnUse" x1="1260.0312" y1="317.9106" x2="1260.0312" y2="118.0513">
	<stop  offset="0" style="stop-color:#D4D600"/>
	<stop  offset="1" style="stop-color:#46AA3C"/>
</linearGradient>
<path fill="url(#SVGID_4_)" d="M1439.578,306.798c-12.059-62.516-70.037-188.718-175.55-188.747c-0.014,0-0.008,0-0.029,0
	c-110.334,0-162.57,121.974-183.876,194.681c-0.269,0.909,0.384,1.83,1.461,2.057c0.158,0.036,0.324,0.052,0.485,0.052
	c0.898,0,1.718-0.515,1.94-1.292c0.369-1.26,0.77-2.568,1.156-3.861c2.391-1.76,4.847-3.485,7.329-5.199
	c-0.468,2.728-0.94,5.462-1.407,8.192c-0.41,2.382,3.212,3.664,3.683,0.918c0.637-3.706,1.274-7.41,1.905-11.115
	c0.051-0.285,0.04-0.553-0.019-0.799c5.206-3.475,10.562-6.852,16.105-10.094c-0.434,7.197-1.011,14.389-2.72,21.461
	c-0.485,2.015,4.478,2.255,4.979,0.174c1.955-8.09,2.436-16.329,2.901-24.558c4.587-2.577,9.234-5.1,14.005-7.507
	c-0.111,11.62,0.534,23.477-1.579,34.974c-0.507,2.734,3.681,2.014,4.084-0.158c2.238-12.137,1.529-24.604,1.693-36.856
	c3.804-1.86,7.648-3.655,11.549-5.398c0.631,13.661,0.431,27.378-0.248,41.031c-0.132,2.645,3.604,2.693,3.737,0.068
	c0.703-14.223,0.923-28.515,0.178-42.747c3.348-1.452,6.732-2.862,10.133-4.223c2.136,14.679,2.589,29.416,1.354,44.186
	c-0.172,2,4.693,2.641,4.884,0.363c1.298-15.498,0.789-30.956-1.629-46.354c4.215-1.627,8.474-3.171,12.754-4.654
	c2.89,17.099,5.603,34.242,4.611,51.567c-0.116,2.011,4.758,2.642,4.883,0.362c1.031-17.973-1.925-35.754-4.936-53.494
	c4.163-1.385,8.342-2.711,12.545-3.945c3.189,18.876,6.406,37.971,5.324,57.076c-0.11,2.011,4.755,2.642,4.885,0.362
	c1.114-19.657-2.324-39.31-5.598-58.719c4.932-1.38,9.89-2.66,14.855-3.824c3.45,21.019,6.538,42.584,5.292,63.828
	c-0.116,2.007,4.753,2.641,4.891,0.363c1.254-21.482-1.917-43.305-5.414-64.555c-0.038-0.247-0.157-0.471-0.317-0.672
	c3.477-0.77,6.957-1.496,10.431-2.151c3.744,21.556,8.571,43.53,7.403,65.368c-0.089,1.614,3.005,2.312,4.299,1.354
	c0.7,0.78,1.947,1.037,2.724-0.269c29.676-49.866,83.232-95.003,145.283-114.188c1.839,2.711,3.61,5.457,5.342,8.221
	c-13.173,4.725-26.166,10.411-38.711,16.969c-0.03,0.013-0.055,0.025-0.079,0.042c-41.504,21.705-78.069,52.757-99.489,88.793
	c-1.048,1.778,1.688,4.028,2.997,1.815c2.152-3.614,4.516-7.162,6.976-10.676c55.808,0.914,114.585-1.308,169.862,5.34
	c0.425,0.05,0.833-0.062,1.213-0.231c0.028,0,0.056,0.007,0.088,0.003c1.031-0.141,1.722-0.924,1.653-1.79
	C1440.095,307.725,1440.064,307.127,1439.578,306.798z M1367.549,171.382c-4.567,1.295-9.013,2.683-13.372,4.132
	c0.448-5.611,0.876-11.661-0.018-17.314C1358.819,162.354,1363.281,166.765,1367.549,171.382z M1348.29,153.211
	c-0.007,0.17-0.028,0.334,0.04,0.537c2.424,7.086,1.381,16.036,0.807,23.493c-2.596,0.921-5.155,1.893-7.686,2.884
	c0.479-11.626-0.975-22.796-2.904-34.255C1341.877,148.192,1345.129,150.63,1348.29,153.211z M1333.123,142.19
	c2.306,13.408,4.272,26.273,3.406,39.872c-4.135,1.721-8.182,3.533-12.142,5.471c0.902-17.419-0.661-34.92-3.377-52.19
	C1325.146,137.444,1329.202,139.691,1333.123,142.19z M1315.869,132.84c0,0.065-0.033,0.107-0.021,0.176
	c3.005,18.535,4.774,37.366,3.608,56.074c-0.02,0.322,0.121,0.594,0.319,0.841c-4.305,2.238-8.532,4.604-12.658,7.153
	c1.432-22.54,1.567-45.955-1.566-68.391C1309.06,129.94,1312.51,131.308,1315.869,132.84z M1300.494,126.938
	c3.439,23.618,3.199,48.375,1.604,72.088c-0.03,0.388,0.17,0.707,0.445,0.979c-4.271,2.804-8.455,5.818-12.578,9.015
	c3.927-27.603,1.965-57.794-2.101-85.178C1292.157,124.683,1296.387,125.674,1300.494,126.938z M1282.898,122.887
	c3.634,24.294,5.723,50.989,3.371,75.997c-5.443-0.339-10.934-0.647-16.471-0.876c5.68-23.559,5.677-52.288,1.804-76.264
	C1275.427,121.975,1279.207,122.321,1282.898,122.887z M1253.396,197.563c4.346-24.782,3.335-50.815,4.06-75.878
	c2.172-0.103,4.325-0.231,6.543-0.231c0.01,0,0.021,0,0.029,0c1.274,0,2.51,0.107,3.771,0.144c3.944,23.502,3.97,52.93-1.736,75.981
	c-0.025,0.105,0,0.195-0.01,0.298c-4.219-0.148-8.444-0.24-12.676-0.265C1253.377,197.596,1253.396,197.58,1253.396,197.563z
	 M1253.287,121.884c-0.769,24.976,0.361,51.009-3.959,75.725c-4.868,0.024-9.729,0.156-14.573,0.405
	c0.047-0.095,0.126-0.173,0.155-0.284c5.352-24.131,5.262-49.895,6.767-74.405C1245.476,122.697,1249.328,122.189,1253.287,121.884z
	 M1236.644,124.229c-1.44,24.188-1.432,49.547-6.716,73.325c-0.056,0.286,0,0.53,0.127,0.744
	c-6.051,0.417-12.059,1.049-17.998,1.953c1.578-6.771,2.75-13.582,3.679-20.412c0.331-0.566,0.453-1.269,0.257-1.889
	c2.136-16.411,3.09-32.938,5.449-49.362c0.01-0.081-0.021-0.156-0.014-0.238C1226.35,126.703,1231.407,125.303,1236.644,124.229z
	 M1217.502,129.656c-0.323,2.354-0.64,4.711-0.916,7.069c-3.261-0.901-6.547-1.717-9.859-2.47
	C1210.241,132.591,1213.812,131.018,1217.502,129.656z M1202.52,136.309c4.63,0.974,9.213,2.093,13.75,3.353
	c-0.297,2.656-0.579,5.315-0.842,7.975c-7.189-2.556-14.573-4.56-22.123-6.174C1196.301,139.624,1199.386,137.923,1202.52,136.309z
	 M1189.846,143.722c8.654,1.73,17.104,3.952,25.29,6.888c-0.322,3.329-0.651,6.656-0.977,9.99
	c-11.771-3.862-23.953-6.394-36.373-8.207C1181.668,149.304,1185.696,146.426,1189.846,143.722z M1173.895,155.609
	c13.643,1.859,27.008,4.536,39.89,8.789c-0.387,3.807-0.828,7.606-1.309,11.405c-14.977-6.289-30.633-10.129-47.073-12.583
	C1168.151,160.578,1170.995,158.064,1173.895,155.609z M1161.744,166.9c17.53,2.433,34.291,6.295,50.161,13.091
	c-0.52,3.72-1.104,7.439-1.801,11.146c-18.187-6.858-36.747-12.4-56.251-15.79C1156.408,172.448,1159.05,169.64,1161.744,166.9z
	 M1150.731,179.002c20.346,3.335,39.635,9.097,58.548,16.228c-0.398,1.893-0.795,3.788-1.254,5.674
	c-4.049,0.707-8.067,1.549-12.036,2.537c-0.195-0.191-0.431-0.348-0.715-0.442c-16.942-5.643-34.174-11.411-52.034-14.628
	C1145.662,185.174,1148.162,182.053,1150.731,179.002z M1140.491,192.055c0.083,0.025,0.14,0.08,0.229,0.095
	c16.588,2.822,32.61,7.934,48.371,13.164c-0.032,0.01-0.065,0.022-0.107,0.03c-4.745,1.426-9.67,2.871-14.636,4.341
	c-12.875-4.413-26.147-7.208-39.816-9.103C1136.469,197.704,1138.448,194.855,1140.491,192.055z M1132.235,204.042
	c12.216,1.624,24.101,4.036,35.687,7.563c-5.687,1.721-11.401,3.535-17.066,5.463c-7.792-2.479-15.453-3.984-23.581-5.133
	C1128.884,209.279,1130.544,206.648,1132.235,204.042z M1125.188,215.436c6.766,0.909,13.187,2.073,19.601,3.787
	c-10.252,3.726-20.082,8-28.906,13.119C1118.81,226.657,1121.904,221.007,1125.188,215.436z M1112.75,238.542
	c20.76-13.524,49.188-20.768,73.452-28.38c31.677-9.943,66.347-9.558,99.68-7.512c-0.146,1.314-0.347,2.602-0.523,3.904
	c-65.614-4.856-129.505,12.702-180.234,48.436C1107.517,249.522,1110.054,244.025,1112.75,238.542z M1102.33,261.503
	c50.668-37.407,115.939-55.95,182.528-51.188c-0.081,0.517-0.126,1.049-0.212,1.562c-0.061,0.389,0.086,0.727,0.31,1.037
	c-1.565,1.27-3.152,2.552-4.761,3.845c-0.241-0.162-0.502-0.282-0.833-0.314c-64.338-6.174-131.376,18.604-180.468,53.528
	C1100.006,267.166,1101.143,264.344,1102.33,261.503z M1096.473,276.25c47.944-35.432,115.347-61.289,179.66-56.225
	c-2.673,2.151-5.351,4.333-8.037,6.546c-0.029-0.007-0.043-0.018-0.066-0.018c-62.052-0.037-128.677,27.445-175.765,61.3
	C1093.599,284.042,1094.993,280.182,1096.473,276.25z M1086.959,303.876c1.065-3.402,2.188-6.875,3.379-10.427
	c0.277-0.008,0.569-0.083,0.881-0.31c45.152-33.279,111.347-61.264,172.188-62.655c-3.813,3.229-7.549,6.526-11.129,9.918
	c-0.049,0-0.088-0.022-0.147-0.015C1193.357,247.322,1132.555,271.303,1086.959,303.876z M1234.968,246.785
	c4.302-0.748,8.592-1.41,12.872-1.979c-4.018,4.089-7.709,8.309-10.974,12.683C1236.224,253.909,1235.582,250.34,1234.968,246.785z
	 M1240.251,277.449c-0.757-5.062-1.614-10.111-2.519-15.144c12.541-17.874,32.951-32.836,50.338-47.182
	c23.729-19.587,50.892-31.868,82.264-40.615c0.83,0.938,1.682,1.859,2.503,2.813C1315.787,194.491,1268.588,232.15,1240.251,277.449
	z M1241.001,282.882c27.804-46.45,76.367-85.363,134.453-102.415c2.005,2.425,3.966,4.886,5.877,7.389
	c-61.19,17.884-109.053,55.911-139.319,104.187C1241.74,288.986,1241.399,285.935,1241.001,282.882z M1242.624,310.789
	c0.143-4.269,0.089-8.539-0.153-12.809c29.859-49.801,78.784-88.999,141.301-106.909c1.347,1.83,2.658,3.685,3.961,5.546
	C1325.644,216.171,1272.785,260.947,1242.624,310.789z M1397.345,211.364c2.452,4.035,4.814,8.096,7.043,12.178
	c-12.48-0.593-24.764-0.578-37.113,0.364C1377.139,219.152,1387.217,214.967,1397.345,211.364z M1359.109,228.029
	c15.717-1.848,31.212-1.992,47.042-1.174c2.377,4.493,4.628,8.985,6.745,13.467c-26.283-1.048-53.396,0.028-79.559,2.738
	C1341.656,237.649,1350.266,232.617,1359.109,228.029z M1328.132,246.471c0.508,0.26,1.12,0.404,1.764,0.334
	c27.677-3.096,56.639-4.359,84.538-3.173c2.105,4.594,4.062,9.145,5.882,13.646c-36.406-1.595-74.776-0.517-111.046,3.213
	C1315.305,255.595,1321.605,250.909,1328.132,246.471z M1305.732,263.476c0.563,0.373,1.279,0.624,2.052,0.541
	c36.78-3.943,75.994-5.104,112.98-3.476c0.329,0.015,0.587-0.03,0.836-0.074c1.845,4.704,3.525,9.317,5.058,13.83
	c-42.233-4.841-90.596-4.164-133.034-0.026C1297.496,270.564,1301.564,266.983,1305.732,263.476z M1290.486,277.389
	c0.521,0.277,1.144,0.438,1.796,0.373c43.099-4.386,92.328-5.157,135.496-0.125c0.989,3.041,1.902,6.008,2.752,8.92
	c-49.501-1.431-99.779-1.102-149.267,0.574C1284.217,283.819,1287.291,280.573,1290.486,277.389z M1269.842,301.139
	c2.446-3.299,4.985-6.562,7.689-9.761c0.129,0.024,0.234,0.079,0.381,0.073c50.97-1.788,102.836-2.143,153.835-0.636
	c1.488,5.444,2.694,10.581,3.647,15.379C1381.385,300.071,1324.29,301.96,1269.842,301.139z"/>
</svg>
