<?xml version="1.0" encoding="utf-8"?>
<!-- Generator: Adobe Illustrator 14.0.0, SVG Export Plug-In . SVG Version: 6.00 Build 43363)  -->
<!DOCTYPE svg PUBLIC "-//W3C//DTD SVG 1.1//EN" "http://www.w3.org/Graphics/SVG/1.1/DTD/svg11.dtd">
<svg version="1.1" id="Livello_1" xmlns="http://www.w3.org/2000/svg" xmlns:xlink="http://www.w3.org/1999/xlink" x="0px" y="0px"
	 width="423.01px" height="45.132px" viewBox="0 0 423.01 45.132" enable-background="new 0 0 423.01 45.132" xml:space="preserve">
<g>
	<polygon fill="#FFFFFF" points="423.01,44.692 0,44.692 0,43.718 423.01,43.718 423.01,44.692 	"/>
</g>
<g>
	<polygon fill="#FFFFFF" points="423.01,41.532 0,41.532 0,38.606 423.01,38.606 423.01,41.532 	"/>
</g>
<g>
	<path fill="#FFFFFF" d="M300.732,0.879h5.675v15.503h9.916v4.973h-15.591V0.879z"/>
	<path fill="#FFFFFF" d="M318.752,0.879h16.469v4.826h-10.853v3.101h9.828v4.476h-9.828v3.247h10.998v4.826h-16.614V0.879z"/>
	<path fill="#FFFFFF" d="M336.627,0.879h6.348l4.65,12.958l4.651-12.958h6.23L350.2,21.501h-5.266L336.627,0.879z"/>
	<path fill="#FFFFFF" d="M360.499,0.879h16.469v4.826h-10.853v3.101h9.828v4.476h-9.828v3.247h10.998v4.826h-16.614V0.879z"/>
	<path fill="#FFFFFF" d="M380.011,0.879h5.675v15.503h9.916v4.973h-15.591V0.879z"/>
	<path fill="#FFFFFF" d="M409.089,6.027l-3.451,0.789l-1.082-4.388l5.996-1.696h4.124v20.622h-5.587V6.027z"/>
</g>
</svg>
