<?xml version="1.0" encoding="utf-8"?>
<!-- Generator: Adobe Illustrator 14.0.0, SVG Export Plug-In . SVG Version: 6.00 Build 43363)  -->
<!DOCTYPE svg PUBLIC "-//W3C//DTD SVG 1.1//EN" "http://www.w3.org/Graphics/SVG/1.1/DTD/svg11.dtd">
<svg version="1.1" id="Livello_1" xmlns="http://www.w3.org/2000/svg" xmlns:xlink="http://www.w3.org/1999/xlink" x="0px" y="0px"
	 width="161.107px" height="74.526px" viewBox="0 0 161.107 74.526" enable-background="new 0 0 161.107 74.526"
	 xml:space="preserve">
<path fill="#E0091D" d="M82.826,2.924v0.003c-2.792-0.711-5.719-1.093-8.736-1.093c-19.489,0-35.289,15.799-35.289,35.289
	c0,19.491,15.8,35.289,35.289,35.289c3.108,0,6.121-0.405,8.989-1.16v0.003l64.192-18.268v-0.016
	c7.223-1.667,12.611-8.122,12.611-15.849c0-7.74-5.407-14.204-12.645-15.857v-0.013L84.636,3.442
	c-0.582-0.184-1.174-0.353-1.77-0.506L82.826,2.924z"/>
<g>
	<circle fill="#4AA93E" cx="5.84" cy="37.044" r="4.94"/>
	<polygon fill="#4AA93E" points="38.801,37.124 6.583,41.929 6.75,32.188 	"/>
</g>
<g>
	<circle fill="#4AA93E" cx="8.18" cy="49.319" r="4.94"/>
	<polygon fill="#4AA93E" points="38.801,37.124 10.688,53.577 7.216,44.473 	"/>
</g>
<g>
	<circle fill="#4AA93E" cx="8.273" cy="24.696" r="4.94"/>
	<polygon fill="#4AA93E" points="38.801,37.124 7.131,29.504 10.938,20.536 	"/>
</g>
</svg>
