<?xml version="1.0" encoding="utf-8"?>
<!-- Generator: Adobe Illustrator 14.0.0, SVG Export Plug-In . SVG Version: 6.00 Build 43363)  -->
<!DOCTYPE svg PUBLIC "-//W3C//DTD SVG 1.1//EN" "http://www.w3.org/Graphics/SVG/1.1/DTD/svg11.dtd">
<svg version="1.1" id="Livello_1" xmlns="http://www.w3.org/2000/svg" xmlns:xlink="http://www.w3.org/1999/xlink" x="0px" y="0px"
	 width="62.292px" height="138.794px" viewBox="0 0 62.292 138.794" enable-background="new 0 0 62.292 138.794"
	 xml:space="preserve">
<path fill="#EB6D1D" d="M60.742,71.243H60.74c0.615-2.419,0.945-4.953,0.945-7.563c0-16.866-13.672-30.54-30.54-30.54
	c-16.867,0-30.539,13.673-30.539,30.54c0,2.689,0.351,5.297,1.004,7.782H1.609l15.809,55.553h0.014
	c1.442,6.25,7.028,10.914,13.715,10.914c6.698,0,12.292-4.68,13.723-10.943h0.012L60.295,72.81c0.158-0.504,0.305-1.016,0.438-1.531
	L60.742,71.243z"/>
<g>
	<circle fill="#4AA93E" cx="31.215" cy="4.616" r="4.275"/>
	<polygon fill="#4AA93E" points="31.146,33.141 26.988,5.259 35.418,5.404 	"/>
</g>
<g>
	<circle fill="#4AA93E" cx="20.592" cy="6.641" r="4.275"/>
	<polygon fill="#4AA93E" points="31.146,33.141 16.908,8.811 24.786,5.807 	"/>
</g>
<g>
	<circle fill="#4AA93E" cx="41.901" cy="6.721" r="4.275"/>
	<polygon fill="#4AA93E" points="31.146,33.141 37.74,5.733 45.502,9.027 	"/>
</g>
</svg>
