<?xml version="1.0" encoding="utf-8"?>
<!-- Generator: Adobe Illustrator 14.0.0, SVG Export Plug-In . SVG Version: 6.00 Build 43363)  -->
<!DOCTYPE svg PUBLIC "-//W3C//DTD SVG 1.1//EN" "http://www.w3.org/Graphics/SVG/1.1/DTD/svg11.dtd">
<svg version="1.1" id="Livello_1" xmlns="http://www.w3.org/2000/svg" xmlns:xlink="http://www.w3.org/1999/xlink" x="0px" y="0px"
	 width="408.014px" height="122.477px" viewBox="0 0 408.014 122.477" enable-background="new 0 0 408.014 122.477"
	 xml:space="preserve">
<polygon fill="#FFFFFF" points="405.611,77.102 1.401,77.102 1.401,73.33 405.611,73.33 "/>
<polygon fill="#FFFFFF" points="405.611,81.186 1.401,81.186 1.401,79.928 405.611,79.928 "/>
<path fill="#FFFFFF" d="M22.568,38.954L0.82,3.145h18.068l11.774,20.85l11.854-20.85h17.742L38.511,38.709v21.667H22.568V38.954z"/>
<path fill="#FFFFFF" d="M55.03,31.924V31.76C55.03,15.326,68.275,2,85.934,2c17.66,0,30.742,13.163,30.742,29.596v0.164
	c0,16.434-13.245,29.763-30.905,29.763S55.03,48.357,55.03,31.924z M100.487,31.924V31.76c0-8.258-5.968-15.452-14.717-15.452
	c-8.667,0-14.471,7.03-14.471,15.288v0.164c0,8.257,5.969,15.452,14.635,15.452C94.683,47.212,100.487,40.181,100.487,31.924z"/>
<path fill="#FFFFFF" d="M121.34,35.276V3.145h16.105v31.805c0,8.257,4.171,12.182,10.547,12.182c6.377,0,10.547-3.761,10.547-11.773
	V3.145h16.105v31.722c0,18.478-10.547,26.574-26.815,26.574C131.559,61.441,121.34,53.18,121.34,35.276z"/>
<path fill="#FFFFFF" d="M197.134,3.145h16.761l9.977,33.112l11.035-33.275h13.654L259.6,36.257l9.974-33.112h16.435l-19.132,57.644
	h-13.819l-11.523-32.952l-11.448,32.952h-13.817L197.134,3.145z"/>
<path fill="#FFFFFF" d="M284.213,31.924V31.76c0-16.434,13.246-29.76,30.905-29.76c17.658,0,30.739,13.163,30.739,29.596v0.164
	c0,16.434-13.244,29.763-30.904,29.763C297.292,61.523,284.213,48.357,284.213,31.924z M329.671,31.924V31.76
	c0-8.258-5.969-15.452-14.718-15.452c-8.668,0-14.473,7.03-14.473,15.288v0.164c0,8.257,5.972,15.452,14.638,15.452
	C323.865,47.212,329.671,40.181,329.671,31.924z"/>
<path fill="#FFFFFF" d="M351.259,3.145h14.798l23.548,30.25V3.145h15.696v57.231h-13.898L366.956,28.98v31.396h-15.697V3.145z"/>
<path fill="#FFFFFF" d="M8.599,102.397H0.924v-6.213h22.438v6.213h-7.675v19.369H8.599V102.397z"/>
<path fill="#FFFFFF" d="M31.471,96.002h6.833l10.891,25.764h-7.601l-1.865-4.567h-9.866l-1.827,4.567H20.58L31.471,96.002z
	 M37.683,111.678l-2.851-7.271l-2.887,7.271H37.683z"/>
<path fill="#FFFFFF" d="M51.125,96.184h7.089v10.379l8.808-10.379h8.405l-9.684,11l10.013,14.582H67.24l-6.433-9.502l-2.595,2.888
	v6.614h-7.089L51.125,96.184L51.125,96.184z"/>
<path fill="#FFFFFF" d="M77.247,96.184h20.573v6.031H84.264v3.874h12.278v5.589H84.264v4.058h13.74v6.03H77.247V96.184z"/>
<path fill="#FFFFFF" d="M116.89,102.397h-7.675v-6.213h22.438v6.213h-7.675v19.369h-7.089V102.397L116.89,102.397z"/>
<path fill="#FFFFFF" d="M134.352,96.184h7.126v25.582h-7.126V96.184z"/>
<path fill="#FFFFFF" d="M145.604,96.184h7.491l6.104,9.905l6.103-9.905h7.491v25.582h-7.053v-14.688l-6.541,10.011h-0.146
	l-6.506-9.941v14.62h-6.943V96.184z"/>
<path fill="#FFFFFF" d="M176.769,96.184h20.574v6.031h-13.558v3.874h12.279v5.589h-12.279v4.058h13.739v6.03h-20.756V96.184
	L176.769,96.184z"/>
<path fill="#FFFFFF" d="M216.411,102.397h-7.676v-6.213h22.439v6.213h-7.677v19.369h-7.088L216.411,102.397L216.411,102.397z"/>
<path fill="#FFFFFF" d="M231.752,109.049v-0.074c0-7.345,5.92-13.302,13.814-13.302s13.741,5.883,13.741,13.228v0.074
	c0,7.345-5.92,13.303-13.812,13.303C237.6,122.278,231.752,116.394,231.752,109.049z M252.071,109.049v-0.074
	c0-3.69-2.668-6.907-6.575-6.907c-3.875,0-6.471,3.144-6.471,6.833v0.074c0,3.69,2.667,6.908,6.542,6.908
	C249.479,115.883,252.071,112.74,252.071,109.049z"/>
<path fill="#FFFFFF" d="M272.015,96.184h9.867c9.136,0,14.436,5.262,14.436,12.646v0.071c0,7.383-5.372,12.865-14.582,12.865h-9.721
	V96.184z M281.992,115.48c4.235,0,7.053-2.339,7.053-6.468v-0.074c0-4.093-2.816-6.469-7.053-6.469h-2.89v13.011H281.992z"/>
<path fill="#FFFFFF" d="M299.563,96.184h7.125v25.582h-7.125V96.184z"/>
<path fill="#FFFFFF" d="M309.939,109.049v-0.074c0-7.456,5.846-13.302,13.775-13.302c4.496,0,7.675,1.387,10.379,3.728l-4.166,5.008
	c-1.826-1.536-3.652-2.413-6.176-2.413c-3.691,0-6.541,3.107-6.541,7.018v0.072c0,4.131,2.889,7.09,6.94,7.09
	c1.721,0,3.035-0.366,4.097-1.061v-3.104h-5.044v-5.19h11.768v11.512c-2.705,2.229-6.469,3.947-11.109,3.947
	C315.895,122.278,309.939,116.794,309.939,109.049z"/>
<path fill="#FFFFFF" d="M338.364,96.184h20.573v6.031h-13.559v3.874h12.278v5.589h-12.278v4.058h13.74v6.03h-20.757V96.184H338.364z
	"/>
<path fill="#FFFFFF" d="M360.248,117.964l3.944-4.713c2.521,2.01,5.338,3.067,8.297,3.067c1.899,0,2.925-0.655,2.925-1.755v-0.071
	c0-1.06-0.844-1.646-4.313-2.448c-5.444-1.242-9.647-2.776-9.647-8.04v-0.072c0-4.751,3.766-8.187,9.902-8.187
	c4.351,0,7.748,1.169,10.524,3.398l-3.543,5.006c-2.34-1.645-4.896-2.521-7.163-2.521c-1.718,0-2.557,0.729-2.557,1.644v0.074
	c0,1.169,0.876,1.68,4.421,2.485c5.883,1.276,9.538,3.179,9.538,7.965v0.074c0,5.226-4.132,8.33-10.343,8.33
	C367.701,122.202,363.392,120.778,360.248,117.964z"/>
<path fill="#FFFFFF" d="M390.977,102.397h-7.676v-6.213h22.438v6.213h-7.675v19.369h-7.089L390.977,102.397L390.977,102.397z"/>
</svg>
