<?xml version="1.0" encoding="utf-8"?>
<!-- Generator: Adobe Illustrator 14.0.0, SVG Export Plug-In . SVG Version: 6.00 Build 43363)  -->
<!DOCTYPE svg PUBLIC "-//W3C//DTD SVG 1.1//EN" "http://www.w3.org/Graphics/SVG/1.1/DTD/svg11.dtd">
<svg version="1.1" id="Livello_2" xmlns="http://www.w3.org/2000/svg" xmlns:xlink="http://www.w3.org/1999/xlink" x="0px" y="0px"
	 width="859.457px" height="202.604px" viewBox="0 0 859.457 202.604" enable-background="new 0 0 859.457 202.604"
	 xml:space="preserve">
<g>
	<path fill="#FFFFFF" d="M12.019,33.352h17.197v46.983h30.051v15.07H12.019V33.352z"/>
	<path fill="#FFFFFF" d="M63.526,33.352h49.908v14.627H80.546v9.396h29.786v13.563H80.546v9.84h33.331v14.627H63.526V33.352z"/>
	<path fill="#FFFFFF" d="M114.59,33.352h19.236l14.095,39.271l14.095-39.271h18.882l-25.176,62.497h-15.956L114.59,33.352z"/>
	<path fill="#FFFFFF" d="M183.827,33.352h49.908v14.627h-32.888v9.396h29.786v13.563h-29.786v9.84h33.332v14.627h-50.352V33.352z"/>
	<path fill="#FFFFFF" d="M239.855,33.352h17.198v46.983h30.051v15.07h-47.249V33.352z"/>
	<path fill="#FFFFFF" d="M310.688,64.556v-0.177c0-18.084,13.918-32.268,32.711-32.268c12.676,0,20.832,5.318,26.328,12.942
		l-12.942,10.017c-3.546-4.433-7.623-7.27-13.563-7.27c-8.688,0-14.804,7.358-14.804,16.4v0.178c0,9.308,6.116,16.576,14.804,16.576
		c6.471,0,10.283-3.014,14.006-7.535l12.943,9.22c-5.851,8.066-13.741,14.006-27.481,14.006
		C324.96,96.647,310.688,83.083,310.688,64.556z"/>
	<path fill="#FFFFFF" d="M370.53,64.556v-0.177c0-17.818,14.361-32.268,33.509-32.268s33.331,14.272,33.331,32.09v0.178
		c0,17.818-14.36,32.268-33.508,32.268S370.53,82.374,370.53,64.556z M419.818,64.556v-0.177c0-8.954-6.472-16.754-15.957-16.754
		c-9.396,0-15.69,7.624-15.69,16.577v0.178c0,8.953,6.471,16.754,15.868,16.754C413.524,81.133,419.818,73.51,419.818,64.556z"/>
	<path fill="#FFFFFF" d="M443.223,33.352h18.172l14.804,24.023l14.806-24.023h18.171v62.053h-17.106V59.769l-15.87,24.289h-0.355
		l-15.776-24.111v35.458h-16.844V33.352z"/>
	<path fill="#FFFFFF" d="M517.071,33.352h26.594c15.69,0,25.797,8.067,25.797,21.808v0.177c0,14.627-11.259,22.339-26.684,22.339
		h-8.511v17.729h-17.196V33.352z M542.425,64.201c6.115,0,9.839-3.191,9.839-8.066v-0.177c0-5.319-3.724-8.156-9.929-8.156h-8.067
		v16.4H542.425z"/>
	<path fill="#FFFFFF" d="M573.631,33.352h17.196v46.983h30.053v15.07h-47.249V33.352z"/>
	<path fill="#FFFFFF" d="M625.139,33.352h49.907v14.627h-32.887v9.396h29.783v13.563h-29.783v9.84h33.33v14.627h-50.351V33.352z"/>
	<path fill="#FFFFFF" d="M696.325,48.423h-18.617v-15.07h54.431v15.07h-18.617v46.983h-17.196V48.423z"/>
	<path fill="#FFFFFF" d="M736.572,33.352h49.909v14.627h-32.889v9.396h29.785v13.563h-29.785v9.84h33.332v14.627h-50.353V33.352z"/>
	<path fill="#FFFFFF" d="M792.602,33.352h23.934c22.164,0,35.016,12.765,35.016,30.672v0.177c0,17.907-13.029,31.204-35.368,31.204
		h-23.581V33.352z M816.803,80.158c10.283,0,17.108-5.673,17.108-15.69V64.29c0-9.929-6.825-15.69-17.108-15.69h-7.004v31.558
		H816.803z"/>
</g>
<g>
	<path fill="#FFFFFF" d="M7.817,134.15h13.14c3.221,0,5.491,0.804,6.991,2.305c1.025,1.025,1.647,2.38,1.647,4.136v0.073
		c0,2.966-1.684,4.721-3.954,5.711c3.112,1.024,5.088,2.78,5.088,6.258v0.073c0,4.392-3.587,7.064-9.699,7.064H7.817V134.15z
		 M19.2,144.36c2.16,0,3.368-0.73,3.368-2.232v-0.072c0-1.392-1.098-2.195-3.221-2.195h-4.612v4.5H19.2z M20.225,154.06
		c2.159,0,3.403-0.842,3.403-2.342v-0.074c0-1.391-1.098-2.305-3.477-2.305h-5.417v4.721H20.225z"/>
	<path fill="#FFFFFF" d="M33.114,148.532V134.15h7.21v14.236c0,3.697,1.866,5.453,4.722,5.453c2.855,0,4.721-1.684,4.721-5.27
		v-14.42h7.21v14.2c0,8.271-4.722,11.896-12.005,11.896C37.689,160.245,33.114,156.548,33.114,148.532z"/>
	<path fill="#FFFFFF" d="M66.902,140.37h-7.686v-6.221h22.473v6.221h-7.686v19.399h-7.101V140.37z"/>
	<path fill="#FFFFFF" d="M100.106,140.37h-7.687v-6.221h22.473v6.221h-7.686v19.399h-7.101V140.37z"/>
	<path fill="#FFFFFF" d="M117.459,134.15h7.101v9.589h9.114v-9.589h7.101v25.62h-7.101v-9.736h-9.114v9.736h-7.101V134.15z"/>
	<path fill="#FFFFFF" d="M144.768,134.15h20.607v6.038h-13.58v3.88h12.298v5.6h-12.298v4.062h13.762v6.04h-20.789V134.15z"/>
	<path fill="#FFFFFF" d="M178.229,134.15h20.497v6.221h-13.396v4.355h12.115v5.893h-12.115v9.151h-7.101V134.15z"/>
	<path fill="#FFFFFF" d="M207.331,133.965h6.845l10.906,25.805h-7.613l-1.866-4.575h-9.883l-1.83,4.575h-7.467L207.331,133.965z
		 M213.553,149.667l-2.855-7.284l-2.892,7.284H213.553z"/>
	<path fill="#FFFFFF" d="M227.028,134.15h12.115c3.916,0,6.625,1.024,8.345,2.78c1.501,1.464,2.27,3.44,2.27,5.967v0.073
		c0,3.917-2.086,6.515-5.271,7.868l6.113,8.932h-8.199l-5.161-7.762h-0.073h-3.039v7.762h-7.1V134.15z M238.813,146.447
		c2.416,0,3.807-1.172,3.807-3.037v-0.074c0-2.014-1.465-3.038-3.844-3.038h-4.648v6.149H238.813z"/>
	<path fill="#FFFFFF" d="M252.8,134.15h7.504l6.112,9.918l6.112-9.918h7.503v25.62h-7.064v-14.714l-6.551,10.029h-0.146
		l-6.515-9.957v14.642H252.8V134.15z"/>
	<path fill="#FFFFFF" d="M284.027,134.15h20.606v6.038h-13.579v3.88h12.298v5.6h-12.298v4.062h13.762v6.04h-20.789V134.15z"/>
	<path fill="#FFFFFF" d="M307.896,134.15h12.115c3.917,0,6.625,1.024,8.345,2.78c1.501,1.464,2.27,3.44,2.27,5.967v0.073
		c0,3.917-2.086,6.515-5.271,7.868l6.112,8.932h-8.198l-5.162-7.762h-0.072h-3.039v7.762h-7.101V134.15z M319.682,146.447
		c2.416,0,3.807-1.172,3.807-3.037v-0.074c0-2.014-1.464-3.038-3.843-3.038h-4.648v6.149H319.682z"/>
	<path fill="#FFFFFF" d="M343.407,134.15h7.137v25.62h-7.137V134.15z"/>
	<path fill="#FFFFFF" d="M352.741,155.963l3.953-4.723c2.526,2.015,5.344,3.076,8.309,3.076c1.903,0,2.928-0.658,2.928-1.759v-0.071
		c0-1.062-0.842-1.648-4.319-2.453c-5.454-1.245-9.663-2.782-9.663-8.053v-0.072c0-4.759,3.77-8.199,9.919-8.199
		c4.355,0,7.759,1.172,10.541,3.404l-3.551,5.014c-2.342-1.646-4.904-2.524-7.173-2.524c-1.721,0-2.562,0.73-2.562,1.646v0.072
		c0,1.172,0.878,1.685,4.429,2.488c5.893,1.282,9.553,3.187,9.553,7.979v0.074c0,5.233-4.135,8.344-10.357,8.344
		C360.208,160.207,355.889,158.78,352.741,155.963z"/>
	<path fill="#FFFFFF" d="M385.653,155.963l3.953-4.723c2.526,2.015,5.344,3.076,8.309,3.076c1.904,0,2.929-0.658,2.929-1.759v-0.071
		c0-1.062-0.842-1.648-4.319-2.453c-5.454-1.245-9.663-2.782-9.663-8.053v-0.072c0-4.759,3.77-8.199,9.919-8.199
		c4.355,0,7.759,1.172,10.541,3.404l-3.55,5.014c-2.342-1.646-4.904-2.524-7.174-2.524c-1.72,0-2.562,0.73-2.562,1.646v0.072
		c0,1.172,0.879,1.685,4.429,2.488c5.893,1.282,9.553,3.187,9.553,7.979v0.074c0,5.233-4.136,8.344-10.358,8.344
		C393.12,160.207,388.8,158.78,385.653,155.963z"/>
	<path fill="#FFFFFF" d="M416.439,140.37h-7.686v-6.221h22.474v6.221h-7.687v19.399h-7.101V140.37z"/>
	<path fill="#FFFFFF" d="M433.941,134.15h7.134v25.62h-7.134V134.15z"/>
	<path fill="#FFFFFF" d="M445.211,134.15h7.102v19.397h12.408v6.223h-19.51V134.15z"/>
	<path fill="#FFFFFF" d="M467.214,134.15h7.1v19.397h12.408v6.223h-19.508V134.15z"/>
	<path fill="#FFFFFF" d="M498.808,134.15h7.101v19.397h12.406v6.223h-19.507V134.15z"/>
	<path fill="#FFFFFF" d="M518.467,147.032v-0.073c0-7.356,5.931-13.323,13.836-13.323c7.903,0,13.761,5.893,13.761,13.251v0.072
		c0,7.357-5.929,13.323-13.836,13.323C524.324,160.282,518.467,154.388,518.467,147.032z M538.816,147.032v-0.073
		c0-3.697-2.671-6.919-6.589-6.919c-3.879,0-6.478,3.148-6.478,6.847v0.072c0,3.697,2.672,6.918,6.553,6.918
		C536.218,153.877,538.816,150.728,538.816,147.032z"/>
	<path fill="#FFFFFF" d="M548.338,147.032v-0.073c0-7.356,5.929-13.323,13.837-13.323c7.905,0,13.761,5.893,13.761,13.251v0.072
		c0,7.357-5.929,13.323-13.836,13.323C554.196,160.282,548.338,154.388,548.338,147.032z M568.688,147.032v-0.073
		c0-3.697-2.672-6.919-6.589-6.919c-3.879,0-6.478,3.148-6.478,6.847v0.072c0,3.697,2.674,6.918,6.553,6.918
		C566.09,153.877,568.688,150.728,568.688,147.032z"/>
	<path fill="#FFFFFF" d="M579.089,134.15h7.1v10.395l8.821-10.395h8.418l-9.698,11.016l10.028,14.604h-8.527l-6.443-9.517
		l-2.599,2.893v6.624h-7.1V134.15z"/>
	<path fill="#FFFFFF" d="M605.41,134.15h7.138v25.62h-7.138V134.15z"/>
	<path fill="#FFFFFF" d="M616.686,134.15h6.624l10.543,13.541V134.15h7.026v25.62h-6.223l-10.943-14.055v14.055h-7.027V134.15z"/>
	<path fill="#FFFFFF" d="M643.997,147.032v-0.073c0-7.468,5.856-13.323,13.8-13.323c4.501,0,7.686,1.392,10.394,3.734l-4.173,5.013
		c-1.829-1.537-3.66-2.414-6.186-2.414c-3.697,0-6.551,3.11-6.551,7.027v0.072c0,4.136,2.891,7.101,6.953,7.101
		c1.72,0,3.039-0.366,4.1-1.061v-3.111h-5.051V144.8h11.786v11.528c-2.708,2.233-6.478,3.954-11.128,3.954
		C649.963,160.282,643.997,154.791,643.997,147.032z"/>
	<path fill="#FFFFFF" d="M682.068,134.15h20.498v6.221H689.17v4.355h12.116v5.893H689.17v9.151h-7.102V134.15z"/>
	<path fill="#FFFFFF" d="M704.365,147.032v-0.073c0-7.356,5.93-13.323,13.836-13.323c7.903,0,13.761,5.893,13.761,13.251v0.072
		c0,7.357-5.929,13.323-13.836,13.323C710.223,160.282,704.365,154.388,704.365,147.032z M724.715,147.032v-0.073
		c0-3.697-2.672-6.919-6.589-6.919c-3.879,0-6.478,3.148-6.478,6.847v0.072c0,3.697,2.672,6.918,6.553,6.918
		C722.116,153.877,724.715,150.728,724.715,147.032z"/>
	<path fill="#FFFFFF" d="M735.115,134.15h12.115c3.917,0,6.625,1.024,8.345,2.78c1.501,1.464,2.269,3.44,2.269,5.967v0.073
		c0,3.917-2.086,6.515-5.271,7.868l6.113,8.932h-8.199l-5.161-7.762h-0.073h-3.038v7.762h-7.1V134.15z M746.9,146.447
		c2.416,0,3.806-1.172,3.806-3.037v-0.074c0-2.014-1.463-3.038-3.841-3.038h-4.65v6.149H746.9z"/>
	<path fill="#FFFFFF" d="M777.875,150.18l-9.738-16.03h8.09l5.271,9.332l5.307-9.332h7.942l-9.734,15.919v9.701h-7.137V150.18z"/>
	<path fill="#FFFFFF" d="M793.142,147.032v-0.073c0-7.356,5.927-13.323,13.834-13.323c7.905,0,13.763,5.893,13.763,13.251v0.072
		c0,7.357-5.93,13.323-13.836,13.323C798.997,160.282,793.142,154.388,793.142,147.032z M813.489,147.032v-0.073
		c0-3.697-2.671-6.919-6.587-6.919c-3.881,0-6.479,3.148-6.479,6.847v0.072c0,3.697,2.674,6.918,6.553,6.918
		C810.891,153.877,813.489,150.728,813.489,147.032z"/>
	<path fill="#FFFFFF" d="M823.561,148.532V134.15h7.21v14.236c0,3.697,1.868,5.453,4.722,5.453c2.856,0,4.722-1.684,4.722-5.27
		v-14.42h7.211v14.2c0,8.271-4.722,11.896-12.005,11.896C828.136,160.245,823.561,156.548,823.561,148.532z"/>
</g>
<g>
	<polygon fill="#FFFFFF" points="852.173,114.572 6.1,114.572 6.1,110.474 852.173,110.474 852.173,114.572 	"/>
</g>
<g>
	<polygon fill="#FFFFFF" points="852.173,119.007 6.1,119.007 6.1,117.642 852.173,117.642 852.173,119.007 	"/>
</g>
</svg>
