<?xml version="1.0" encoding="utf-8"?>
<!-- Generator: Adobe Illustrator 14.0.0, SVG Export Plug-In . SVG Version: 6.00 Build 43363)  -->
<!DOCTYPE svg PUBLIC "-//W3C//DTD SVG 1.1//EN" "http://www.w3.org/Graphics/SVG/1.1/DTD/svg11.dtd">
<svg version="1.1" id="Livello_1" xmlns="http://www.w3.org/2000/svg" xmlns:xlink="http://www.w3.org/1999/xlink" x="0px" y="0px"
	 width="408.483px" height="167.435px" viewBox="0 0 408.483 167.435" enable-background="new 0 0 408.483 167.435"
	 xml:space="preserve">
<g>
	<g>
		<path fill="#FFFFFF" d="M2.083,1.271h27.216c16.057,0,26.399,8.255,26.399,22.317v0.181c0,14.969-11.522,22.862-27.307,22.862
			h-8.709v18.144h-17.6V1.271z M28.029,32.841c6.26,0,10.07-3.266,10.07-8.255v-0.181c0-5.444-3.81-8.347-10.161-8.347h-8.255
			v16.783H28.029z"/>
		<path fill="#FFFFFF" d="M59.965,1.271h51.075v14.968H77.383v9.617h30.482v13.88H77.383v10.069h34.11v14.969H59.965V1.271z"/>
		<path fill="#FFFFFF" d="M117.304,1.271h30.029c9.706,0,16.42,2.54,20.684,6.894c3.72,3.629,5.625,8.528,5.625,14.788v0.182
			c0,9.707-5.171,16.148-13.063,19.505l15.151,22.136h-20.322l-12.792-19.232h-0.182h-7.529v19.232h-17.6V1.271z M146.516,31.752
			c5.987,0,9.433-2.903,9.433-7.529v-0.182c0-4.99-3.628-7.53-9.525-7.53h-11.521v15.241H146.516z"/>
		<path fill="#FFFFFF" d="M179.359,1.271h50.809v15.422h-33.209v10.796h30.034v14.605h-30.034v22.681h-17.6V1.271z"/>
		<path fill="#FFFFFF" d="M234.979,1.271h51.075v14.968h-33.657v9.617h30.483v13.88h-30.483v10.069h34.111v14.969h-51.529V1.271z"/>
		<path fill="#FFFFFF" d="M289.688,33.204v-0.182C289.688,14.516,303.932,0,323.164,0c12.972,0,21.318,5.443,26.943,13.245
			l-13.245,10.252c-3.629-4.537-7.802-7.439-13.881-7.439c-8.891,0-15.149,7.53-15.149,16.783v0.182
			c0,9.525,6.259,16.964,15.149,16.964c6.624,0,10.523-3.084,14.334-7.711l13.245,9.436c-5.988,8.255-14.062,14.334-28.123,14.334
			C304.293,66.045,289.688,52.164,289.688,33.204z"/>
		<path fill="#FFFFFF" d="M370.432,16.693h-19.05V1.271h55.702v15.422h-19.053v48.082h-17.6V16.693z"/>
	</g>
	<g>
		<path fill="#FFFFFF" d="M11.717,111.322H2.472v-7.486h27.032v7.486h-9.245v23.334h-8.542V111.322z"/>
		<path fill="#FFFFFF" d="M32.195,103.836h8.542v11.537h10.962v-11.537h8.541v30.82h-8.541v-11.711H40.737v11.711h-8.542V103.836z"
			/>
		<path fill="#FFFFFF" d="M64.648,103.836h24.787v7.267H73.101v4.666h14.793v6.737H73.101v4.886h16.554v7.265H64.648V103.836z"/>
		<path fill="#FFFFFF" d="M104.103,103.836h24.655v7.486h-16.115v5.24h14.573v7.088h-14.573v11.006h-8.541V103.836z"/>
		<path fill="#FFFFFF" d="M138.712,103.613h8.233l13.12,31.043h-9.158l-2.246-5.503h-11.887l-2.202,5.503h-8.98L138.712,103.613z
			 M146.196,122.506l-3.433-8.762l-3.479,8.762H146.196z"/>
		<path fill="#FFFFFF" d="M162.008,103.836h14.573c4.711,0,7.969,1.234,10.038,3.348c1.805,1.761,2.73,4.139,2.73,7.177v0.089
			c0,4.709-2.509,7.836-6.34,9.466l7.353,10.741H180.5l-6.209-9.332h-0.087h-3.655v9.332h-8.542V103.836z M176.185,118.632
			c2.907,0,4.579-1.409,4.579-3.654v-0.089c0-2.422-1.761-3.653-4.623-3.653h-5.592v7.396H176.185z"/>
		<path fill="#FFFFFF" d="M192.612,103.836h9.027l7.358,11.933l7.352-11.933h9.025v30.82h-8.497v-17.698l-7.88,12.062h-0.178
			l-7.841-11.976v17.611h-8.366V103.836z"/>
		<path fill="#FFFFFF" d="M229.783,103.836h24.787v7.267h-16.334v4.666h14.793v6.737h-14.793v4.886h16.555v7.265h-25.008V103.836z"
			/>
		<path fill="#FFFFFF" d="M258.097,103.836h14.573c4.712,0,7.969,1.234,10.039,3.348c1.805,1.761,2.729,4.139,2.729,7.177v0.089
			c0,4.709-2.509,7.836-6.34,9.466l7.354,10.741h-9.862l-6.209-9.332h-0.087h-3.655v9.332h-8.542V103.836z M272.274,118.632
			c2.906,0,4.579-1.409,4.579-3.654v-0.089c0-2.422-1.762-3.653-4.623-3.653h-5.592v7.396H272.274z"/>
		<path fill="#FFFFFF" d="M299.843,103.836h8.542v23.336h14.924v7.484h-23.466V103.836z"/>
		<path fill="#FFFFFF" d="M325.911,103.836h24.787v7.267h-16.334v4.666h14.793v6.737h-14.793v4.886h16.554v7.265h-25.007V103.836z"
			/>
		<path fill="#FFFFFF" d="M354.225,103.836h24.655v7.486h-16.113v5.24h14.573v7.088h-14.573v11.006h-8.542V103.836z"/>
		<path fill="#FFFFFF" d="M389.231,111.322h-9.246v-7.486h27.033v7.486h-9.246v23.334h-8.541V111.322z"/>
	</g>
	<g>
		<path fill="#FFFFFF" d="M7.215,159.895l-5.799-9.549h4.818l3.139,5.56l3.161-5.56h4.731l-5.799,9.484v5.776h-4.25V159.895z"/>
		<path fill="#FFFFFF" d="M16.485,158.02v-0.043c0-4.383,3.531-7.935,8.24-7.935c4.709,0,8.197,3.508,8.197,7.891v0.044
			c0,4.382-3.532,7.934-8.241,7.934C19.973,165.91,16.485,162.402,16.485,158.02z M28.606,158.02v-0.043
			c0-2.202-1.592-4.121-3.924-4.121c-2.311,0-3.859,1.875-3.859,4.077v0.044c0,2.201,1.592,4.119,3.902,4.119
			C27.058,162.096,28.606,160.221,28.606,158.02z"/>
		<path fill="#FFFFFF" d="M34.782,158.912v-8.566h4.295v8.479c0,2.203,1.111,3.249,2.812,3.249c1.7,0,2.812-1.002,2.812-3.14v-8.589
			h4.295v8.459c0,4.927-2.812,7.084-7.151,7.084S34.782,163.688,34.782,158.912z"/>
		<path fill="#FFFFFF" d="M62.52,150.237h4.076l6.496,15.369h-4.534l-1.113-2.726H61.56l-1.091,2.726h-4.446L62.52,150.237z
			 M66.225,159.59l-1.701-4.339l-1.721,4.339H66.225z"/>
		<path fill="#FFFFFF" d="M74.428,150.346h7.215c2.334,0,3.947,0.61,4.972,1.656c0.893,0.872,1.352,2.051,1.352,3.555v0.044
			c0,2.332-1.242,3.88-3.14,4.686l3.641,5.32h-4.883l-3.074-4.621h-0.044h-1.809v4.621h-4.229V150.346z M81.448,157.67
			c1.438,0,2.268-0.696,2.268-1.809v-0.044c0-1.198-0.873-1.809-2.29-1.809h-2.769v3.661H81.448z"/>
		<path fill="#FFFFFF" d="M89.954,150.346h12.274v3.598H94.14v2.31h7.326v3.337H94.14v2.419h8.198v3.598H89.954V150.346z"/>
		<path fill="#FFFFFF" d="M109.08,163.339l2.356-2.812c1.503,1.198,3.182,1.832,4.947,1.832c1.133,0,1.745-0.394,1.745-1.047v-0.044
			c0-0.632-0.502-0.981-2.572-1.459c-3.25-0.743-5.756-1.658-5.756-4.798v-0.044c0-2.834,2.245-4.883,5.907-4.883
			c2.595,0,4.621,0.697,6.278,2.027l-2.115,2.987c-1.395-0.98-2.92-1.505-4.271-1.505c-1.025,0-1.526,0.437-1.526,0.981v0.044
			c0,0.697,0.523,1.003,2.638,1.481c3.51,0.765,5.69,1.897,5.69,4.753v0.044c0,3.118-2.464,4.97-6.17,4.97
			C113.528,165.867,110.956,165.018,109.08,163.339z"/>
		<path fill="#FFFFFF" d="M129.25,150.237h4.077l6.497,15.369h-4.535l-1.111-2.726h-5.886l-1.089,2.726h-4.448L129.25,150.237z
			 M132.957,159.59l-1.701-4.339l-1.723,4.339H132.957z"/>
		<path fill="#FFFFFF" d="M141.159,150.346h12.208v3.707h-7.978v2.594h7.216v3.51h-7.216v5.45h-4.229V150.346z"/>
		<path fill="#FFFFFF" d="M155.138,150.346h12.273v3.598h-8.087v2.31h7.326v3.337h-7.326v2.419h8.197v3.598h-12.382V150.346z"/>
		<path fill="#FFFFFF" d="M175.419,150.346h12.209v3.707h-7.979v2.594h7.216v3.51h-7.216v5.45h-4.229V150.346z"/>
		<path fill="#FFFFFF" d="M188.875,158.02v-0.043c0-4.383,3.532-7.935,8.24-7.935c4.71,0,8.204,3.508,8.204,7.891v0.044
			c0,4.382-3.538,7.934-8.247,7.934C192.364,165.91,188.875,162.402,188.875,158.02z M200.996,158.02v-0.043
			c0-2.202-1.592-4.121-3.925-4.121c-2.31,0-3.858,1.875-3.858,4.077v0.044c0,2.201,1.592,4.119,3.902,4.119
			C199.448,162.096,200.996,160.221,200.996,158.02z"/>
		<path fill="#FFFFFF" d="M207.373,150.346h7.216c2.333,0,3.945,0.61,4.971,1.656c0.895,0.872,1.352,2.051,1.352,3.555v0.044
			c0,2.332-1.242,3.88-3.139,4.686l3.64,5.32h-4.882l-3.074-4.621h-0.044h-1.811v4.621h-4.229V150.346z M214.393,157.67
			c1.438,0,2.268-0.696,2.268-1.809v-0.044c0-1.198-0.873-1.809-2.29-1.809h-2.769v3.661H214.393z"/>
		<path fill="#FFFFFF" d="M234.064,150.237h4.076l6.496,15.369h-4.534l-1.112-2.726h-5.886l-1.091,2.726h-4.446L234.064,150.237z
			 M237.77,159.59l-1.701-4.339l-1.721,4.339H237.77z"/>
		<path fill="#FFFFFF" d="M251.861,150.346h4.229v11.554h7.392v3.707h-11.62V150.346z"/>
		<path fill="#FFFFFF" d="M265.229,150.346h4.251v15.261h-4.251V150.346z"/>
		<path fill="#FFFFFF" d="M275.847,154.053h-4.575v-3.707h13.384v3.707h-4.579v11.554h-4.229V154.053z"/>
		<path fill="#FFFFFF" d="M290.089,154.053h-4.579v-3.707h13.386v3.707h-4.577v11.554h-4.229V154.053z"/>
		<path fill="#FFFFFF" d="M300.601,150.346h4.229v11.554h7.391v3.707h-11.62V150.346z"/>
		<path fill="#FFFFFF" d="M313.881,150.346h12.274v3.598h-8.089v2.31h7.326v3.337h-7.326v2.419h8.198v3.598h-12.384V150.346z"/>
		<path fill="#FFFFFF" d="M333.138,150.346h4.47l2.659,8.829l2.943-8.872h3.64l2.943,8.872l2.659-8.829h4.383l-5.101,15.369h-3.686
			l-3.073-8.784l-3.052,8.784h-3.686L333.138,150.346z"/>
		<path fill="#FFFFFF" d="M358.369,150.346h4.229v5.711h5.428v-5.711h4.229v15.261h-4.229v-5.798h-5.428v5.798h-4.229V150.346z"/>
		<path fill="#FFFFFF" d="M374.9,150.346h4.251v15.261H374.9V150.346z"/>
		<path fill="#FFFFFF" d="M381.79,150.346h4.229v11.554h7.391v3.707h-11.62V150.346z"/>
		<path fill="#FFFFFF" d="M395.07,150.346h12.274v3.598h-8.089v2.31h7.326v3.337h-7.326v2.419h8.198v3.598H395.07V150.346z"/>
	</g>
	<g>
		<polygon fill="#FFFFFF" points="407.072,83.995 2.215,83.995 2.215,79.801 407.072,79.801 407.072,83.995 		"/>
	</g>
	<g>
		<polygon fill="#FFFFFF" points="407.072,88.535 2.215,88.535 2.215,87.138 407.072,87.138 407.072,88.535 		"/>
	</g>
</g>
</svg>
