<?xml version="1.0" encoding="utf-8"?>
<!-- Generator: Adobe Illustrator 14.0.0, SVG Export Plug-In . SVG Version: 6.00 Build 43363)  -->
<!DOCTYPE svg PUBLIC "-//W3C//DTD SVG 1.1//EN" "http://www.w3.org/Graphics/SVG/1.1/DTD/svg11.dtd">
<svg version="1.1" id="Livello_1" xmlns="http://www.w3.org/2000/svg" xmlns:xlink="http://www.w3.org/1999/xlink" x="0px" y="0px"
	 width="267.84px" height="151.738px" viewBox="0 0 267.84 151.738" enable-background="new 0 0 267.84 151.738"
	 xml:space="preserve">
<g>
	<g>
		<path fill="#FFFFFF" d="M2.777,3.878h15.682v42.842h27.402v13.742H2.777V3.878z"/>
		<path fill="#FFFFFF" d="M44.572,32.331V32.17c0-16.248,13.095-29.424,30.556-29.424c17.46,0,30.394,13.015,30.394,29.262v0.163
			c0,16.248-13.095,29.423-30.555,29.423C57.505,61.593,44.572,48.578,44.572,32.331z M89.516,32.331V32.17
			c0-8.165-5.901-15.278-14.55-15.278c-8.569,0-14.308,6.952-14.308,15.115v0.163c0,8.164,5.901,15.277,14.469,15.277
			C83.777,47.447,89.516,40.495,89.516,32.331z"/>
		<path fill="#FFFFFF" d="M106.174,52.055l8.73-10.428c5.578,4.446,11.802,6.791,18.35,6.791c4.203,0,6.467-1.456,6.467-3.881
			v-0.161c0-2.344-1.859-3.638-9.539-5.417c-12.044-2.749-21.34-6.143-21.34-17.783v-0.161c0-10.509,8.326-18.107,21.906-18.107
			c9.619,0,17.137,2.586,23.28,7.517L146.187,21.5c-5.174-3.638-10.832-5.579-15.844-5.579c-3.799,0-5.658,1.616-5.658,3.638v0.16
			c0,2.587,1.94,3.719,9.781,5.498c13.014,2.829,21.098,7.032,21.098,17.622v0.161c0,11.56-9.135,18.43-22.876,18.43
			C122.664,61.431,113.126,58.279,106.174,52.055z"/>
		<path fill="#FFFFFF" d="M160.337,3.878h45.509v13.337h-29.99v8.569h27.16V38.15h-27.16v8.974h30.394v13.337h-45.913V3.878z"/>
		<path fill="#FFFFFF" d="M211.428,3.878h26.755c8.65,0,14.632,2.263,18.43,6.143c3.313,3.234,5.013,7.599,5.013,13.176v0.163
			c0,8.648-4.607,14.387-11.641,17.379l13.5,19.724h-18.108L233.98,43.325h-0.161h-6.71v17.136h-15.681V3.878z M237.455,31.038
			c5.336,0,8.407-2.588,8.407-6.711v-0.16c0-4.447-3.233-6.709-8.488-6.709h-10.266v13.581H237.455z"/>
	</g>
	<g>
		<path fill="#FFFFFF" d="M1.509,93.474h5.383v14.707h9.407v4.717H1.509V93.474z"/>
		<path fill="#FFFFFF" d="M18.184,93.474h15.623v4.577H23.511v2.941h9.324v4.247h-9.324v3.079h10.434v4.579H18.184V93.474z"/>
		<path fill="#FFFFFF" d="M41.017,98.191h-5.827v-4.717h17.037v4.717h-5.827v14.707h-5.383V98.191z"/>
		<path fill="#FFFFFF" d="M53.086,101.493c1.859-0.195,2.858-1.111,2.774-2.609h-2.108v-5.41h5.466v4.412
			c0,4.106-2.22,5.521-5.688,5.633L53.086,101.493z"/>
		<path fill="#FFFFFF" d="M60.16,110.012l2.997-3.579c1.915,1.526,4.051,2.331,6.299,2.331c1.443,0,2.22-0.499,2.22-1.332v-0.056
			c0-0.806-0.638-1.249-3.274-1.859c-4.135-0.943-7.326-2.109-7.326-6.104v-0.056c0-3.607,2.858-6.215,7.52-6.215
			c3.302,0,5.883,0.887,7.992,2.579l-2.691,3.803c-1.776-1.25-3.719-1.915-5.439-1.915c-1.304,0-1.942,0.554-1.942,1.247v0.057
			c0,0.888,0.666,1.276,3.357,1.887c4.467,0.973,7.243,2.414,7.243,6.049v0.056c0,3.969-3.136,6.328-7.854,6.328
			C65.821,113.232,62.546,112.149,60.16,110.012z"/>
		<path fill="#FFFFFF" d="M86.573,93.474h7.492c6.937,0,10.961,3.995,10.961,9.602v0.054c0,5.606-4.079,9.769-11.072,9.769h-7.381
			V93.474z M94.148,108.125c3.219,0,5.355-1.776,5.355-4.912v-0.055c0-3.108-2.137-4.913-5.355-4.913h-2.192v9.88H94.148z"/>
		<path fill="#FFFFFF" d="M107.381,93.474h9.185c2.969,0,5.022,0.777,6.327,2.109c1.138,1.11,1.721,2.607,1.721,4.522v0.056
			c0,2.968-1.582,4.939-3.996,5.966l4.634,6.771h-6.216l-3.913-5.883h-0.056h-2.303v5.883h-5.383V93.474z M116.317,102.797
			c1.831,0,2.886-0.889,2.886-2.304v-0.055c0-1.526-1.11-2.304-2.914-2.304h-3.524v4.662H116.317z"/>
		<path fill="#FFFFFF" d="M127.024,93.474h5.411v19.424h-5.411V93.474z"/>
		<path fill="#FFFFFF" d="M135.569,93.474h5.023l7.991,10.267V93.474h5.328v19.424h-4.717l-8.297-10.655v10.655h-5.328V93.474z"/>
		<path fill="#FFFFFF" d="M156.932,93.474h5.383v7.881l6.687-7.881h6.382l-7.352,8.352l7.603,11.072h-6.466l-4.884-7.215
			l-1.97,2.192v5.022h-5.383V93.474z"/>
		<path fill="#FFFFFF" d="M182.567,110.012l2.997-3.579c1.914,1.526,4.051,2.331,6.299,2.331c1.444,0,2.22-0.499,2.22-1.332v-0.056
			c0-0.806-0.639-1.249-3.275-1.859c-4.134-0.943-7.325-2.109-7.325-6.104v-0.056c0-3.607,2.857-6.215,7.521-6.215
			c3.302,0,5.882,0.887,7.992,2.579l-2.693,3.803c-1.775-1.25-3.718-1.915-5.438-1.915c-1.304,0-1.942,0.554-1.942,1.247v0.057
			c0,0.888,0.665,1.276,3.357,1.887c4.468,0.973,7.242,2.414,7.242,6.049v0.056c0,3.969-3.137,6.328-7.853,6.328
			C188.229,113.232,184.953,112.149,182.567,110.012z"/>
		<path fill="#FFFFFF" d="M201.044,103.24v-0.054c0-5.578,4.496-10.103,10.49-10.103s10.433,4.468,10.433,10.045v0.058
			c0,5.577-4.494,10.099-10.488,10.099S201.044,108.819,201.044,103.24z M216.473,103.24v-0.054c0-2.805-2.025-5.245-4.994-5.245
			c-2.941,0-4.911,2.387-4.911,5.188v0.058c0,2.802,2.025,5.243,4.967,5.243C214.504,108.43,216.473,106.043,216.473,103.24z"/>
		<path fill="#FFFFFF" d="M224.35,93.474h5.688l4.634,7.519l4.636-7.519h5.688v19.424h-5.355v-11.155l-4.968,7.604h-0.11
			l-4.939-7.549v11.101h-5.272V93.474z"/>
		<path fill="#FFFFFF" d="M248.016,93.474h15.622v4.577h-10.293v2.941h9.323v4.247h-9.323v3.079h10.433v4.579h-15.762V93.474z"/>
	</g>
	<g>
		<path fill="#EA6D1F" d="M1.119,136.907v-0.069c0-7.144,5.497-12.745,12.92-12.745c5.007,0,8.228,2.1,10.399,5.111l-5.112,3.957
			c-1.401-1.751-3.012-2.871-5.357-2.871c-3.431,0-5.847,2.905-5.847,6.478v0.07c0,3.676,2.416,6.547,5.847,6.547
			c2.556,0,4.062-1.19,5.532-2.977l5.112,3.642c-2.311,3.187-5.427,5.532-10.854,5.532C6.756,149.582,1.119,144.225,1.119,136.907z"
			/>
		<path fill="#EA6D1F" d="M35.257,124.407h6.548l10.434,24.686h-7.283l-1.786-4.377h-9.453l-1.751,4.377h-7.143L35.257,124.407z
			 M41.21,139.429l-2.731-6.968l-2.766,6.968H41.21z"/>
		<path fill="#EA6D1F" d="M54.095,124.582h11.589c3.747,0,6.338,0.981,7.983,2.661c1.436,1.401,2.171,3.292,2.171,5.708v0.069
			c0,3.747-1.996,6.233-5.042,7.528l5.847,8.544h-7.843l-4.937-7.424h-0.07h-2.906v7.424h-6.792V124.582z M65.369,136.348
			c2.311,0,3.641-1.12,3.641-2.907v-0.069c0-1.927-1.4-2.906-3.676-2.906h-4.447v5.883H65.369z"/>
		<path fill="#EA6D1F" d="M78.745,124.582h11.589c3.747,0,6.338,0.981,7.983,2.661c1.436,1.401,2.171,3.292,2.171,5.708v0.069
			c0,3.747-1.996,6.233-5.042,7.528l5.847,8.544H93.45l-4.937-7.424h-0.07h-2.906v7.424h-6.792V124.582z M90.019,136.348
			c2.311,0,3.642-1.12,3.642-2.907v-0.069c0-1.927-1.4-2.906-3.676-2.906h-4.447v5.883H90.019z"/>
		<path fill="#EA6D1F" d="M102.553,136.907v-0.069c0-7.038,5.672-12.745,13.235-12.745c7.562,0,13.165,5.637,13.165,12.675v0.07
			c0,7.037-5.672,12.744-13.235,12.744C108.156,149.582,102.553,143.945,102.553,136.907z M122.021,136.907v-0.069
			c0-3.537-2.555-6.618-6.302-6.618c-3.711,0-6.198,3.012-6.198,6.548v0.07c0,3.536,2.557,6.617,6.268,6.617
			C119.535,143.455,122.021,140.444,122.021,136.907z"/>
		<path fill="#EA6D1F" d="M136.902,130.535h-7.353v-5.953h21.498v5.953h-7.352v18.558h-6.792V130.535z"/>
		<path fill="#EA6D1F" d="M160.64,145.381l4.376-4.132c1.191,1.436,2.311,2.275,3.817,2.275c1.715,0,2.8-1.154,2.8-3.431v-15.512
			h6.758v15.547c0,3.081-0.771,5.252-2.416,6.897c-1.611,1.61-3.921,2.486-6.723,2.486
			C164.982,149.513,162.355,147.728,160.64,145.381z"/>
		<path fill="#EA6D1F" d="M181.579,138.343v-13.761h6.897v13.621c0,3.536,1.784,5.218,4.516,5.218s4.516-1.612,4.516-5.043v-13.796
			h6.898v13.585c0,7.914-4.516,11.38-11.484,11.38C185.954,149.547,181.579,146.011,181.579,138.343z"/>
		<path fill="#EA6D1F" d="M208.049,124.582h6.827v24.511h-6.827V124.582z"/>
		<path fill="#EA6D1F" d="M217.991,136.907v-0.069c0-7.144,5.499-12.745,12.921-12.745c5.007,0,8.229,2.1,10.399,5.111l-5.111,3.957
			c-1.4-1.751-3.012-2.871-5.357-2.871c-3.431,0-5.847,2.905-5.847,6.478v0.07c0,3.676,2.416,6.547,5.847,6.547
			c2.556,0,4.061-1.19,5.533-2.977l5.111,3.642c-2.312,3.187-5.428,5.532-10.854,5.532
			C223.63,149.582,217.991,144.225,217.991,136.907z"/>
		<path fill="#EA6D1F" d="M243.867,124.582h19.713v5.777h-12.99v3.712h11.766v5.357H250.59v3.887h13.165v5.777h-19.888V124.582z"/>
	</g>
	<g>
		<polygon fill="#FFFFFF" points="264.241,76.26 0.279,76.26 0.279,72.625 264.241,72.625 264.241,76.26 		"/>
	</g>
	<g>
		<polygon fill="#FFFFFF" points="264.241,80.195 0.279,80.195 0.279,78.983 264.241,78.983 264.241,80.195 		"/>
	</g>
</g>
</svg>
