<?xml version="1.0" encoding="utf-8"?>
<!-- Generator: Adobe Illustrator 14.0.0, SVG Export Plug-In . SVG Version: 6.00 Build 43363)  -->
<!DOCTYPE svg PUBLIC "-//W3C//DTD SVG 1.1//EN" "http://www.w3.org/Graphics/SVG/1.1/DTD/svg11.dtd">
<svg version="1.1" id="Livello_1" xmlns="http://www.w3.org/2000/svg" xmlns:xlink="http://www.w3.org/1999/xlink" x="0px" y="0px"
	 width="408.014px" height="48.563px" viewBox="0 21.189 408.014 48.563" enable-background="new 0 21.189 408.014 48.563"
	 xml:space="preserve">
<polygon fill="#E1001A" points="408.113,68.186 0,68.186 0,66.928 408.113,66.928 "/>
<polygon fill="#E1001A" points="408.113,64.102 0,64.102 0,60.33 408.113,60.33 "/>
<path fill="#E1001A" d="M0.01,23.746h12.594c7.431,0,12.215,3.82,12.215,10.327v0.084c0,6.925-5.331,10.579-12.635,10.579h-4.03
	v8.396H0.01V23.746z M12.016,38.354c2.896,0,4.66-1.511,4.66-3.82V34.45c0-2.519-1.764-3.862-4.702-3.862h-3.82v7.766H12.016z"/>
<path fill="#E1001A" d="M26.791,23.746h23.634v6.926H34.851v4.45h14.105v6.423H34.851v4.66h15.784v6.926H26.791V23.746z"/>
<path fill="#E1001A" d="M53.32,23.746h13.895c4.491,0,7.598,1.175,9.571,3.19c1.721,1.679,2.603,3.946,2.603,6.842v0.084
	c0,4.491-2.393,7.472-6.045,9.025l7.01,10.243h-9.403l-5.918-8.9h-0.084h-3.484v8.9H53.32V23.746z M66.837,37.851
	c2.771,0,4.366-1.344,4.366-3.485v-0.083c0-2.309-1.68-3.484-4.409-3.484h-5.331v7.053H66.837z"/>
<path fill="#E1001A" d="M82.033,23.746h23.508v7.136H90.176v4.996h13.895v6.759H90.176v10.495h-8.144V23.746z"/>
<path fill="#E1001A" d="M107.765,23.746h23.634v6.926h-15.574v4.45h14.105v6.423h-14.105v4.66h15.784v6.926h-23.843V23.746z"/>
<path fill="#E1001A" d="M133.076,38.523v-0.084c0-8.564,6.591-15.28,15.49-15.28c6.003,0,9.865,2.519,12.468,6.129l-6.128,4.744
	c-1.679-2.099-3.61-3.442-6.423-3.442c-4.113,0-7.01,3.484-7.01,7.766v0.084c0,4.408,2.896,7.85,7.01,7.85
	c3.065,0,4.87-1.426,6.632-3.567l6.13,4.366c-2.771,3.821-6.507,6.633-13.014,6.633C139.835,53.719,133.076,47.296,133.076,38.523z"
	/>
<path fill="#E1001A" d="M170.436,30.882h-8.814v-7.136h25.774v7.136h-8.815v22.249h-8.145V30.882z"/>
<path fill="#E1001A" d="M198.643,38.523v-0.084c0-8.564,6.717-15.28,15.827-15.28c5.164,0,8.815,1.595,11.921,4.282l-4.784,5.751
	c-2.099-1.763-4.198-2.771-7.095-2.771c-4.239,0-7.514,3.568-7.514,8.06v0.083c0,4.744,3.315,8.144,7.976,8.144
	c1.974,0,3.484-0.42,4.701-1.217v-3.568h-5.793v-5.96h13.518v13.223c-3.107,2.561-7.431,4.534-12.762,4.534
	C205.487,53.719,198.643,47.422,198.643,38.523z"/>
<path fill="#E1001A" d="M240.62,23.536h7.851l12.509,29.595h-8.73l-2.142-5.247h-11.334l-2.099,5.247h-8.565L240.62,23.536z
	 M247.757,41.545l-3.274-8.354l-3.316,8.354H247.757z"/>
<path fill="#E1001A" d="M262.364,23.746h8.605l7.012,11.376l7.009-11.376h8.605v29.385h-8.102V36.256l-7.513,11.502h-0.17
	L270.34,36.34v16.792h-7.976V23.746z"/>
<path fill="#E1001A" d="M297.33,23.746h23.635v6.926h-15.572v4.45h14.104v6.423h-14.104v4.66h15.782v6.926H297.33V23.746z"/>
<path fill="#E1001A" d="M338.258,31.135l-4.953,1.133l-1.554-6.297l8.606-2.435h5.92v29.595h-8.02V31.135z"/>
<path fill="#E1001A" d="M349.381,38.523v-0.084c0-8.312,5.289-15.28,13.645-15.28c8.353,0,13.559,6.885,13.559,15.196v0.084
	c0,8.312-5.248,15.281-13.645,15.281C354.545,53.719,349.381,46.834,349.381,38.523z M368.398,38.523v-0.084
	c0-4.66-2.227-8.06-5.459-8.06c-3.231,0-5.372,3.274-5.372,7.976v0.084c0,4.702,2.183,8.06,5.458,8.06
	C366.299,46.498,368.398,43.182,368.398,38.523z"/>
<path fill="#E1001A" d="M378.555,38.523v-0.084c0-8.312,5.289-15.28,13.644-15.28c8.354,0,13.56,6.885,13.56,15.196v0.084
	c0,8.312-5.248,15.281-13.645,15.281C383.718,53.719,378.555,46.834,378.555,38.523z M397.57,38.523v-0.084
	c0-4.66-2.225-8.06-5.457-8.06s-5.372,3.274-5.372,7.976v0.084c0,4.702,2.183,8.06,5.457,8.06
	C395.472,46.498,397.57,43.182,397.57,38.523z"/>
</svg>
